<?xml version="1.0" encoding="utf-8"?>
<!-- Generator: Adobe Illustrator 26.0.0, SVG Export Plug-In . SVG Version: 6.00 Build 0)  -->
<svg version="1.1" id="Layer_1" xmlns="http://www.w3.org/2000/svg" xmlns:xlink="http://www.w3.org/1999/xlink" x="0px" y="0px"
	 viewBox="0 0 55.2 38.4" style="enable-background:new 0 0 55.2 38.4;" xml:space="preserve">
<style type="text/css">
	.st0{fill:#009B3A;}
	.st1{fill:#FEDF00;}
	.st2{fill:#002776;}
	.st3{fill:#FFFFFF;}
	.st4{display:none;fill-rule:evenodd;clip-rule:evenodd;fill:#009B3A;}
	.st5{display:none;fill:#009B3A;}
	.st6{display:none;fill:#FFFFFF;}
</style>
<g>
	<path class="st0" d="M3,0h49.1c1.7,0,3,1.4,3,3v32.3c0,1.7-1.4,3-3,3H3c-1.7,0-3-1.3-3-3V3C0,1.4,1.4,0,3,0L3,0z"/>
	<polygon class="st1" points="4.2,19.2 27.6,34.1 51,19.2 27.6,4.3 	"/>
	<path class="st2" d="M27.6,9.4c5.4,0,9.9,4.4,9.9,9.9s-4.4,9.9-9.9,9.9s-9.9-4.4-9.9-9.9S22.2,9.4,27.6,9.4L27.6,9.4z"/>
	<path class="st3" d="M18.6,15.2c1.1-0.2,2.2-0.2,3.4-0.2c5.9,0,11.2,2.1,15.4,5.6c-0.1,0.5-0.2,1.1-0.3,1.6c-4-3.6-9.2-5.8-15-5.8
		c-1.3,0-2.6,0.1-3.9,0.3C18.2,16.2,18.4,15.7,18.6,15.2L18.6,15.2z"/>
	<path class="st4" d="M19.2,16.1c0.1,0,0.2-0.2,0.2-0.3s-0.1-0.3-0.3-0.3c-0.1,0-0.2,0.2-0.2,0.3S19,16.2,19.2,16.1L19.2,16.1z
		 M19.2,16.3c0.2,0,0.4-0.3,0.4-0.5c0-0.3-0.2-0.4-0.5-0.4c-0.2,0-0.4,0.3-0.4,0.5C18.8,16.2,19,16.4,19.2,16.3L19.2,16.3z"/>
	<path class="st4" d="M20.1,15.7l0.4,0c0.1,0,0.1-0.1,0.1-0.1c0-0.1-0.1-0.1-0.1-0.1l-0.4,0L20.1,15.7L20.1,15.7z M20,16.2l0.2,0
		l0-0.4l0.4,0c0.2,0,0.3-0.1,0.3-0.3c0-0.2-0.1-0.3-0.3-0.3l-0.5,0L20,16.2L20,16.2z"/>
	<path class="st5" d="M20.8,16.2c0-0.1,0-0.4-0.2-0.4l-0.3,0c0.3,0,0.3,0.3,0.3,0.4L20.8,16.2L20.8,16.2z"/>
	<path class="st4" d="M21.3,16h0.2c0.1,0,0.2-0.1,0.2-0.3v-0.1c0-0.1-0.1-0.2-0.3-0.2l-0.3,0L21.3,16L21.3,16z M21.1,16.2l0.4,0
		c0.2,0,0.4-0.2,0.4-0.4v-0.1c0-0.2-0.2-0.4-0.4-0.4l-0.4,0L21.1,16.2L21.1,16.2z"/>
	<polygon class="st5" points="22.3,16.1 23.2,16.2 23.2,16 22.5,16 22.5,15.7 23,15.8 23.1,15.6 22.5,15.6 22.5,15.4 23.2,15.4 
		23.2,15.2 22.4,15.2 	"/>
	<polygon class="st5" points="23.5,16.2 23.7,16.2 23.8,15.6 23.9,16.2 24,16.2 24.3,15.6 24.2,16.3 24.4,16.3 24.5,15.3 24.2,15.3 
		24,15.9 23.9,15.3 23.6,15.3 	"/>
	<polygon class="st5" points="25.5,16.4 26.2,16.5 26.2,16.4 25.7,16.3 25.7,16.1 26.1,16.1 26.2,16 25.7,15.9 25.8,15.8 26.3,15.9 
		26.3,15.7 25.6,15.6 	"/>
	<path class="st4" d="M27.6,16.3l0.4,0.1c0.1,0,0.1,0,0.1-0.1c0-0.1,0-0.1-0.1-0.1l-0.4-0.1L27.6,16.3L27.6,16.3z M27.3,16.8l0.2,0
		l0.1-0.3l0.4,0.1c0.2,0,0.3,0,0.4-0.2s0-0.3-0.2-0.4l-0.5-0.1L27.3,16.8L27.3,16.8z"/>
	<path class="st4" d="M28.7,16.6l0.3,0.1c0.1,0,0.1,0,0.1-0.1c0-0.1,0-0.1-0.1-0.1l-0.3-0.1L28.7,16.6L28.7,16.6z M28.4,17.1l0.2,0
		l0.1-0.3l0.4,0.1c0.1,0,0.3,0,0.4-0.2c0-0.1,0-0.3-0.2-0.4l-0.5-0.2L28.4,17.1L28.4,17.1z"/>
	<path class="st5" d="M29.2,17.3c0-0.1,0.1-0.4-0.1-0.5l-0.2-0.1c0.3,0.1,0.2,0.4,0.1,0.5L29.2,17.3L29.2,17.3z"/>
	<path class="st4" d="M30,17.4c0.1,0,0.3,0,0.3-0.2c0.1-0.1,0-0.3-0.1-0.4c-0.1,0-0.3,0-0.3,0.2C29.8,17.2,29.9,17.4,30,17.4
		L30,17.4z M29.9,17.6c0.2,0.1,0.5,0,0.6-0.3c0.1-0.2,0-0.5-0.2-0.6s-0.5,0-0.6,0.3C29.6,17.2,29.7,17.5,29.9,17.6L29.9,17.6z"/>
	<path class="st4" d="M31.1,17.9c0.1,0,0.3,0,0.4-0.2l0,0l0.2,0.1c-0.1,0.2-0.4,0.4-0.6,0.3c-0.2-0.1-0.3-0.4-0.2-0.6
		c0.1-0.2,0.4-0.4,0.6-0.3c0.2,0.1,0.3,0.2,0.2,0.4l-0.2-0.1c0-0.1-0.1-0.2-0.1-0.2c-0.1-0.1-0.3,0-0.3,0.2
		C30.9,17.7,31,17.8,31.1,17.9L31.1,17.9z"/>
	<polygon class="st5" points="31.3,17.6 31.6,17.8 31.6,17.9 31.2,17.8 	"/>
	<polygon class="st5" points="31.5,17.7 31.6,17.8 31.4,18.2 31.3,18.1 	"/>
	<path class="st4" d="M32.1,18l0.3,0.2c0.1,0,0.1,0,0.2,0s0-0.1-0.1-0.2l-0.3-0.2L32.1,18L32.1,18z M31.7,18.4l0.2,0.1l0.1-0.3
		l0.3,0.2c0.2,0.1,0.3,0,0.4-0.1c0.1-0.1,0-0.3-0.1-0.4l-0.5-0.2L31.7,18.4L31.7,18.4z"/>
	<path class="st5" d="M32.5,18.7c0.1-0.1,0.2-0.4,0-0.5l-0.2-0.1c0.3,0.1,0.1,0.4,0.1,0.5L32.5,18.7L32.5,18.7z"/>
	<polygon class="st5" points="32.8,18.9 33.5,19.3 33.6,19.2 33,18.8 33.2,18.6 33.6,18.9 33.7,18.7 33.2,18.5 33.3,18.3 33.9,18.6 
		34,18.5 33.3,18.1 	"/>
	<path class="st5" d="M34.2,19.4c0,0.1,0,0.2,0.1,0.2s0.2,0.1,0.2,0c0.1-0.2-0.5-0.4-0.3-0.7c0.2-0.2,0.4,0,0.5,0s0.3,0.2,0.1,0.4
		l-0.2-0.1c0-0.1,0-0.2-0.1-0.2s-0.2-0.1-0.2,0c-0.1,0.1,0.5,0.4,0.3,0.7c-0.1,0.2-0.4,0.1-0.5,0c-0.1-0.1-0.3-0.3-0.2-0.5
		L34.2,19.4L34.2,19.4z"/>
	<path class="st5" d="M35.2,20c0,0.1,0,0.2,0.1,0.2c0.1,0.1,0.2,0.1,0.2,0c0.1-0.2-0.5-0.4-0.3-0.7c0.2-0.2,0.4,0,0.5,0
		c0.1,0.1,0.2,0.2,0.1,0.4L35.7,20c0.1-0.1,0-0.2-0.1-0.2c-0.1-0.1-0.2-0.1-0.2,0c-0.1,0.1,0.5,0.4,0.3,0.7c-0.1,0.2-0.4,0.1-0.5,0
		c-0.1-0.1-0.3-0.3-0.2-0.5L35.2,20L35.2,20z"/>
	<path class="st4" d="M36.2,21c0.1,0.1,0.3,0,0.4-0.1c0.1-0.1,0.1-0.3,0-0.4c-0.1-0.1-0.3,0-0.4,0.1C36.1,20.7,36.1,20.9,36.2,21
		L36.2,21z M36.1,21.1c0.2,0.1,0.5,0.1,0.6-0.1s0.1-0.5,0-0.6s-0.5-0.1-0.6,0.1C35.9,20.7,36,21,36.1,21.1L36.1,21.1z"/>
	<polygon class="st6" points="19.6,17 19.4,17.4 19.6,17.5 	"/>
	<polygon class="st6" points="19.6,17 19.7,17.4 19.5,17.5 	"/>
	<polygon class="st6" points="20,17.3 19.5,17.3 19.5,17.5 	"/>
	<polygon class="st6" points="20,17.3 19.6,17.5 19.5,17.4 	"/>
	<polygon class="st6" points="19.2,17.3 19.5,17.5 19.6,17.4 	"/>
	<polygon class="st6" points="19.2,17.3 19.6,17.3 19.6,17.5 	"/>
	<polygon class="st6" points="19.8,17.8 19.7,17.4 19.5,17.4 	"/>
	<polygon class="st6" points="19.8,17.8 19.5,17.5 19.6,17.4 	"/>
	<polygon class="st6" points="19.3,17.8 19.6,17.5 19.5,17.4 	"/>
	<polygon class="st6" points="19.3,17.8 19.4,17.4 19.6,17.4 	"/>
	<polygon class="st6" points="20.4,21.1 20.3,21.5 20.5,21.6 	"/>
	<polygon class="st6" points="20.4,21.1 20.6,21.5 20.4,21.6 	"/>
	<polygon class="st6" points="20.8,21.4 20.4,21.4 20.4,21.6 	"/>
	<polygon class="st6" points="20.8,21.4 20.5,21.7 20.4,21.5 	"/>
	<polygon class="st6" points="20,21.4 20.4,21.7 20.5,21.5 	"/>
	<polygon class="st6" points="20,21.4 20.5,21.4 20.5,21.6 	"/>
	<polygon class="st6" points="20.7,21.9 20.5,21.5 20.4,21.6 	"/>
	<polygon class="st6" points="20.7,21.9 20.3,21.7 20.5,21.5 	"/>
	<polygon class="st6" points="20.2,21.9 20.5,21.7 20.4,21.5 	"/>
	<polygon class="st6" points="20.2,21.9 20.3,21.5 20.5,21.6 	"/>
	<polygon class="st6" points="19.2,22.1 19.1,22.4 19.3,22.5 	"/>
	<polygon class="st6" points="19.2,22.1 19.3,22.4 19.2,22.5 	"/>
	<polygon class="st6" points="19.6,22.4 19.2,22.4 19.2,22.5 	"/>
	<polygon class="st6" points="19.6,22.4 19.3,22.5 19.2,22.4 	"/>
	<polygon class="st6" points="18.9,22.4 19.2,22.5 19.3,22.4 	"/>
	<polygon class="st6" points="18.9,22.4 19.2,22.4 19.2,22.5 	"/>
	<polygon class="st6" points="19.4,22.7 19.3,22.4 19.1,22.5 	"/>
	<polygon class="st6" points="19.4,22.7 19.1,22.5 19.2,22.4 	"/>
	<polygon class="st6" points="19,22.7 19.3,22.5 19.2,22.4 	"/>
	<polygon class="st6" points="19,22.7 19.1,22.4 19.3,22.5 	"/>
	<polygon class="st6" points="21.4,20.8 21.3,21 21.4,21 	"/>
	<polygon class="st6" points="21.4,20.8 21.5,21 21.4,21 	"/>
	<polygon class="st6" points="21.6,20.9 21.4,20.9 21.4,21 	"/>
	<polygon class="st6" points="21.6,20.9 21.4,21 21.4,21 	"/>
	<polygon class="st6" points="21.2,20.9 21.4,21 21.4,21 	"/>
	<polygon class="st6" points="21.2,20.9 21.4,20.9 21.4,21 	"/>
	<polygon class="st6" points="21.5,21.1 21.5,20.9 21.4,21 	"/>
	<polygon class="st6" points="21.5,21.1 21.4,21 21.4,20.9 	"/>
	<polygon class="st6" points="21.3,21.1 21.4,21 21.4,20.9 	"/>
	<polygon class="st6" points="21.3,21.1 21.3,20.9 21.4,21 	"/>
	<polygon class="st6" points="22.5,22.2 22.4,22.5 22.5,22.6 	"/>
	<polygon class="st6" points="22.5,22.2 22.6,22.5 22.4,22.6 	"/>
	<polygon class="st6" points="22.8,22.4 22.5,22.4 22.5,22.6 	"/>
	<polygon class="st6" points="22.8,22.4 22.5,22.6 22.4,22.5 	"/>
	<polygon class="st6" points="22.1,22.4 22.4,22.6 22.5,22.5 	"/>
	<polygon class="st6" points="22.1,22.4 22.5,22.4 22.5,22.6 	"/>
	<polygon class="st6" points="22.7,22.8 22.6,22.5 22.4,22.5 	"/>
	<polygon class="st6" points="22.7,22.8 22.4,22.6 22.5,22.5 	"/>
	<polygon class="st6" points="22.3,22.8 22.6,22.6 22.5,22.5 	"/>
	<polygon class="st6" points="22.3,22.8 22.4,22.5 22.5,22.5 	"/>
	<polygon class="st6" points="22.2,23.2 22.1,23.5 22.2,23.6 	"/>
	<polygon class="st6" points="22.2,23.2 22.3,23.5 22.1,23.6 	"/>
	<polygon class="st6" points="22.5,23.4 22.2,23.4 22.2,23.6 	"/>
	<polygon class="st6" points="22.5,23.4 22.2,23.6 22.1,23.5 	"/>
	<polygon class="st6" points="21.9,23.4 22.1,23.6 22.2,23.5 	"/>
	<polygon class="st6" points="21.9,23.4 22.2,23.4 22.2,23.6 	"/>
	<polygon class="st6" points="22.4,23.8 22.3,23.5 22.1,23.5 	"/>
	<polygon class="st6" points="22.4,23.8 22.1,23.6 22.2,23.5 	"/>
	<polygon class="st6" points="22,23.8 22.2,23.6 22.2,23.5 	"/>
	<polygon class="st6" points="22,23.8 22.1,23.5 22.2,23.5 	"/>
	<polygon class="st6" points="30.7,15.7 30.5,16.1 30.7,16.2 	"/>
	<polygon class="st6" points="30.7,15.7 30.8,16.1 30.6,16.2 	"/>
	<polygon class="st6" points="31.1,16 30.6,16 30.6,16.2 	"/>
	<polygon class="st6" points="31.1,16 30.7,16.3 30.6,16.1 	"/>
	<polygon class="st6" points="30.2,16 30.6,16.3 30.7,16.1 	"/>
	<polygon class="st6" points="30.2,16 30.7,16 30.7,16.2 	"/>
	<polygon class="st6" points="30.9,16.5 30.8,16.1 30.6,16.1 	"/>
	<polygon class="st6" points="30.9,16.5 30.6,16.2 30.7,16.1 	"/>
	<polygon class="st6" points="30.4,16.5 30.8,16.2 30.6,16.1 	"/>
	<polygon class="st6" points="30.4,16.5 30.5,16.1 30.7,16.1 	"/>
	<polygon class="st6" points="34.5,22.2 34.4,22.6 34.6,22.7 	"/>
	<polygon class="st6" points="34.5,22.2 34.6,22.6 34.4,22.7 	"/>
	<polygon class="st6" points="34.9,22.5 34.5,22.5 34.5,22.7 	"/>
	<polygon class="st6" points="34.9,22.5 34.6,22.8 34.4,22.6 	"/>
	<polygon class="st6" points="34.1,22.5 34.4,22.8 34.6,22.6 	"/>
	<polygon class="st6" points="34.1,22.5 34.5,22.5 34.5,22.7 	"/>
	<polygon class="st6" points="34.8,23 34.6,22.6 34.4,22.7 	"/>
	<polygon class="st6" points="34.8,23 34.4,22.8 34.5,22.6 	"/>
	<polygon class="st6" points="34.2,23 34.6,22.8 34.5,22.6 	"/>
	<polygon class="st6" points="34.2,23 34.4,22.6 34.6,22.7 	"/>
	<polygon class="st6" points="35.9,22.5 35.8,22.7 35.9,22.8 	"/>
	<polygon class="st6" points="35.9,22.5 36,22.7 35.8,22.8 	"/>
	<polygon class="st6" points="36.1,22.7 35.8,22.7 35.8,22.8 	"/>
	<polygon class="st6" points="36.1,22.7 35.9,22.8 35.8,22.7 	"/>
	<polygon class="st6" points="35.6,22.7 35.8,22.8 35.9,22.7 	"/>
	<polygon class="st6" points="35.6,22.7 35.9,22.7 35.9,22.8 	"/>
	<polygon class="st6" points="36,23 36,22.7 35.8,22.8 	"/>
	<polygon class="st6" points="36,23 35.8,22.8 35.9,22.7 	"/>
	<polygon class="st6" points="35.7,23 35.9,22.8 35.8,22.7 	"/>
	<polygon class="st6" points="35.7,23 35.8,22.7 35.9,22.8 	"/>
	<polygon class="st6" points="34.9,23.2 34.8,23.5 35,23.6 	"/>
	<polygon class="st6" points="34.9,23.2 35,23.5 34.8,23.6 	"/>
	<polygon class="st6" points="35.2,23.4 34.9,23.4 34.9,23.6 	"/>
	<polygon class="st6" points="35.2,23.4 35,23.6 34.8,23.5 	"/>
	<polygon class="st6" points="34.6,23.4 34.8,23.6 35,23.5 	"/>
	<polygon class="st6" points="34.6,23.4 34.9,23.4 34.9,23.6 	"/>
	<polygon class="st6" points="35.1,23.8 35,23.5 34.8,23.5 	"/>
	<polygon class="st6" points="35.1,23.8 34.8,23.6 34.9,23.5 	"/>
	<polygon class="st6" points="34.7,23.8 35,23.6 34.9,23.5 	"/>
	<polygon class="st6" points="34.7,23.8 34.8,23.5 35,23.5 	"/>
	<polygon class="st6" points="32.5,25.2 32.4,25.6 32.6,25.6 	"/>
	<polygon class="st6" points="32.5,25.2 32.6,25.6 32.5,25.6 	"/>
	<polygon class="st6" points="32.9,25.5 32.5,25.5 32.5,25.7 	"/>
	<polygon class="st6" points="32.9,25.5 32.6,25.7 32.5,25.5 	"/>
	<polygon class="st6" points="32.2,25.5 32.5,25.7 32.6,25.5 	"/>
	<polygon class="st6" points="32.2,25.5 32.5,25.5 32.5,25.7 	"/>
	<polygon class="st6" points="32.7,25.9 32.6,25.5 32.5,25.6 	"/>
	<polygon class="st6" points="32.7,25.9 32.5,25.7 32.6,25.5 	"/>
	<polygon class="st6" points="32.3,25.9 32.6,25.7 32.5,25.5 	"/>
	<polygon class="st6" points="32.3,25.9 32.4,25.5 32.6,25.6 	"/>
	<polygon class="st6" points="32.5,26.3 32.4,26.6 32.6,26.6 	"/>
	<polygon class="st6" points="32.5,26.3 32.6,26.6 32.5,26.6 	"/>
	<polygon class="st6" points="32.8,26.5 32.5,26.5 32.5,26.6 	"/>
	<polygon class="st6" points="32.8,26.5 32.6,26.7 32.5,26.5 	"/>
	<polygon class="st6" points="32.2,26.5 32.5,26.7 32.6,26.5 	"/>
	<polygon class="st6" points="32.2,26.5 32.5,26.5 32.5,26.6 	"/>
	<polygon class="st6" points="32.7,26.8 32.6,26.5 32.5,26.6 	"/>
	<polygon class="st6" points="32.7,26.8 32.5,26.6 32.5,26.5 	"/>
	<polygon class="st6" points="32.3,26.8 32.6,26.6 32.5,26.5 	"/>
	<polygon class="st6" points="32.3,26.8 32.4,26.5 32.6,26.6 	"/>
	<polygon class="st6" points="33.5,24.5 33.4,24.8 33.6,24.9 	"/>
	<polygon class="st6" points="33.5,24.5 33.6,24.8 33.5,24.9 	"/>
	<polygon class="st6" points="33.8,24.7 33.5,24.7 33.5,24.9 	"/>
	<polygon class="st6" points="33.8,24.7 33.5,24.9 33.5,24.8 	"/>
	<polygon class="st6" points="33.2,24.7 33.5,24.9 33.5,24.8 	"/>
	<polygon class="st6" points="33.2,24.7 33.5,24.7 33.5,24.9 	"/>
	<polygon class="st6" points="33.7,25 33.6,24.8 33.5,24.8 	"/>
	<polygon class="st6" points="33.7,25 33.5,24.9 33.5,24.8 	"/>
	<polygon class="st6" points="33.3,25 33.6,24.9 33.5,24.8 	"/>
	<polygon class="st6" points="33.3,25 33.4,24.8 33.6,24.8 	"/>
	<polygon class="st6" points="34.3,24 34.2,24.3 34.4,24.4 	"/>
	<polygon class="st6" points="34.3,24 34.4,24.3 34.2,24.4 	"/>
	<polygon class="st6" points="34.6,24.2 34.3,24.2 34.3,24.4 	"/>
	<polygon class="st6" points="34.6,24.2 34.3,24.4 34.2,24.3 	"/>
	<polygon class="st6" points="34,24.2 34.2,24.4 34.3,24.3 	"/>
	<polygon class="st6" points="34,24.2 34.3,24.2 34.3,24.4 	"/>
	<polygon class="st6" points="34.5,24.6 34.4,24.3 34.2,24.3 	"/>
	<polygon class="st6" points="34.5,24.6 34.2,24.4 34.3,24.2 	"/>
	<polygon class="st6" points="34.1,24.6 34.4,24.4 34.3,24.2 	"/>
	<polygon class="st6" points="34.1,24.6 34.2,24.3 34.4,24.3 	"/>
	<polygon class="st6" points="32.5,24.3 32.4,24.6 32.5,24.7 	"/>
	<polygon class="st6" points="32.5,24.3 32.6,24.6 32.4,24.7 	"/>
	<polygon class="st6" points="32.8,24.5 32.5,24.5 32.5,24.7 	"/>
	<polygon class="st6" points="32.8,24.5 32.5,24.7 32.5,24.6 	"/>
	<polygon class="st6" points="32.2,24.5 32.5,24.7 32.5,24.6 	"/>
	<polygon class="st6" points="32.2,24.5 32.5,24.5 32.5,24.7 	"/>
	<polygon class="st6" points="32.7,24.9 32.6,24.6 32.4,24.6 	"/>
	<polygon class="st6" points="32.7,24.9 32.4,24.7 32.5,24.6 	"/>
	<polygon class="st6" points="32.3,24.9 32.5,24.7 32.5,24.6 	"/>
	<polygon class="st6" points="32.3,24.9 32.4,24.6 32.5,24.6 	"/>
	<polygon class="st6" points="23.9,19.2 23.7,19.6 23.9,19.6 	"/>
	<polygon class="st6" points="23.9,19.2 24,19.6 23.8,19.6 	"/>
	<polygon class="st6" points="24.2,19.5 23.8,19.5 23.8,19.7 	"/>
	<polygon class="st6" points="24.2,19.5 23.9,19.7 23.8,19.6 	"/>
	<polygon class="st6" points="23.5,19.5 23.8,19.7 23.9,19.6 	"/>
	<polygon class="st6" points="23.5,19.5 23.9,19.5 23.9,19.7 	"/>
	<polygon class="st6" points="24,19.9 24,19.5 23.8,19.6 	"/>
	<polygon class="st6" points="24,19.9 23.8,19.7 23.9,19.5 	"/>
	<polygon class="st6" points="23.6,19.9 23.9,19.7 23.8,19.5 	"/>
	<polygon class="st6" points="23.6,19.9 23.8,19.5 23.9,19.6 	"/>
	<polygon class="st6" points="30.3,18.4 30.2,18.7 30.3,18.7 	"/>
	<polygon class="st6" points="30.3,18.4 30.4,18.7 30.2,18.7 	"/>
	<polygon class="st6" points="30.5,18.6 30.3,18.6 30.3,18.8 	"/>
	<polygon class="st6" points="30.5,18.6 30.3,18.8 30.2,18.7 	"/>
	<polygon class="st6" points="30,18.6 30.2,18.8 30.3,18.7 	"/>
	<polygon class="st6" points="30,18.6 30.3,18.6 30.3,18.8 	"/>
	<polygon class="st6" points="30.4,18.9 30.4,18.7 30.2,18.7 	"/>
	<polygon class="st6" points="30.4,18.9 30.2,18.8 30.3,18.6 	"/>
	<polygon class="st6" points="30.1,18.9 30.3,18.8 30.3,18.6 	"/>
	<polygon class="st6" points="30.1,18.9 30.2,18.7 30.3,18.7 	"/>
	<polygon class="st6" points="27.6,23.2 27.5,23.6 27.7,23.7 	"/>
	<polygon class="st6" points="27.6,23.2 27.7,23.6 27.5,23.7 	"/>
	<polygon class="st6" points="28,23.5 27.6,23.5 27.6,23.7 	"/>
	<polygon class="st6" points="28,23.5 27.7,23.7 27.5,23.6 	"/>
	<polygon class="st6" points="27.2,23.5 27.5,23.7 27.7,23.6 	"/>
	<polygon class="st6" points="27.2,23.5 27.6,23.5 27.6,23.7 	"/>
	<polygon class="st6" points="27.9,24 27.7,23.6 27.5,23.6 	"/>
	<polygon class="st6" points="27.9,24 27.5,23.7 27.6,23.5 	"/>
	<polygon class="st6" points="27.4,24 27.7,23.7 27.6,23.5 	"/>
	<polygon class="st6" points="27.4,24 27.5,23.6 27.7,23.6 	"/>
	<polygon class="st6" points="28.7,21.3 28.6,21.6 28.8,21.7 	"/>
	<polygon class="st6" points="28.7,21.3 28.9,21.6 28.7,21.7 	"/>
	<polygon class="st6" points="29.1,21.6 28.7,21.6 28.7,21.7 	"/>
	<polygon class="st6" points="29.1,21.6 28.8,21.8 28.7,21.6 	"/>
	<polygon class="st6" points="28.4,21.6 28.7,21.8 28.8,21.6 	"/>
	<polygon class="st6" points="28.4,21.6 28.8,21.6 28.8,21.7 	"/>
	<polygon class="st6" points="29,22 28.8,21.6 28.7,21.7 	"/>
	<polygon class="st6" points="29,22 28.7,21.7 28.8,21.6 	"/>
	<polygon class="st6" points="28.5,22 28.8,21.7 28.7,21.6 	"/>
	<polygon class="st6" points="28.5,22 28.6,21.6 28.8,21.7 	"/>
	<polygon class="st6" points="27.6,20.4 27.5,20.8 27.7,20.8 	"/>
	<polygon class="st6" points="27.6,20.4 27.7,20.8 27.5,20.8 	"/>
	<polygon class="st6" points="27.9,20.7 27.6,20.7 27.6,20.9 	"/>
	<polygon class="st6" points="27.9,20.7 27.6,20.9 27.5,20.7 	"/>
	<polygon class="st6" points="27.3,20.7 27.5,20.9 27.6,20.7 	"/>
	<polygon class="st6" points="27.3,20.7 27.6,20.7 27.6,20.9 	"/>
	<polygon class="st6" points="27.8,21.1 27.7,20.7 27.5,20.8 	"/>
	<polygon class="st6" points="27.8,21.1 27.5,20.9 27.6,20.7 	"/>
	<polygon class="st6" points="27.4,21.1 27.7,20.9 27.6,20.7 	"/>
	<polygon class="st6" points="27.4,21.1 27.5,20.7 27.7,20.8 	"/>
	<polygon class="st6" points="26.6,21.4 26.5,21.6 26.7,21.7 	"/>
	<polygon class="st6" points="26.6,21.4 26.7,21.6 26.6,21.7 	"/>
	<polygon class="st6" points="26.9,21.6 26.6,21.6 26.6,21.7 	"/>
	<polygon class="st6" points="26.9,21.6 26.6,21.7 26.6,21.6 	"/>
	<polygon class="st6" points="26.3,21.6 26.6,21.7 26.6,21.6 	"/>
	<polygon class="st6" points="26.3,21.6 26.6,21.6 26.6,21.7 	"/>
	<polygon class="st6" points="26.8,21.9 26.7,21.6 26.5,21.7 	"/>
	<polygon class="st6" points="26.8,21.9 26.5,21.7 26.6,21.6 	"/>
	<polygon class="st6" points="26.4,21.9 26.7,21.7 26.6,21.6 	"/>
	<polygon class="st6" points="26.4,21.9 26.5,21.6 26.7,21.7 	"/>
	<polygon class="st6" points="27.1,22.1 27,22.3 27.1,22.4 	"/>
	<polygon class="st6" points="27.1,22.1 27.2,22.3 27.1,22.4 	"/>
	<polygon class="st6" points="27.3,22.3 27.1,22.3 27.1,22.4 	"/>
	<polygon class="st6" points="27.3,22.3 27.1,22.4 27.1,22.3 	"/>
	<polygon class="st6" points="26.9,22.3 27.1,22.4 27.1,22.3 	"/>
	<polygon class="st6" points="26.9,22.3 27.1,22.3 27.1,22.4 	"/>
	<polygon class="st6" points="27.2,22.5 27.2,22.3 27.1,22.4 	"/>
	<polygon class="st6" points="27.2,22.5 27.1,22.4 27.1,22.3 	"/>
	<polygon class="st6" points="27,22.5 27.1,22.4 27.1,22.3 	"/>
	<polygon class="st6" points="27,22.5 27,22.3 27.1,22.4 	"/>
	<polygon class="st6" points="30.5,25.5 30.4,25.8 30.6,25.9 	"/>
	<polygon class="st6" points="30.5,25.5 30.7,25.8 30.5,25.9 	"/>
	<polygon class="st6" points="30.9,25.7 30.5,25.7 30.5,25.9 	"/>
	<polygon class="st6" points="30.9,25.7 30.6,25.9 30.5,25.8 	"/>
	<polygon class="st6" points="30.2,25.7 30.5,25.9 30.6,25.8 	"/>
	<polygon class="st6" points="30.2,25.7 30.6,25.7 30.6,25.9 	"/>
	<polygon class="st6" points="30.8,26.1 30.6,25.8 30.5,25.8 	"/>
	<polygon class="st6" points="30.8,26.1 30.5,25.9 30.6,25.8 	"/>
	<polygon class="st6" points="30.3,26.1 30.6,25.9 30.5,25.8 	"/>
	<polygon class="st6" points="30.3,26.1 30.5,25.8 30.6,25.8 	"/>
	<polygon class="st6" points="31.4,24.7 31.3,25 31.4,25 	"/>
	<polygon class="st6" points="31.4,24.7 31.5,25 31.4,25 	"/>
	<polygon class="st6" points="31.7,24.9 31.4,24.9 31.4,25 	"/>
	<polygon class="st6" points="31.7,24.9 31.4,25 31.4,24.9 	"/>
	<polygon class="st6" points="31.1,24.9 31.4,25 31.4,24.9 	"/>
	<polygon class="st6" points="31.1,24.9 31.4,24.9 31.4,25 	"/>
	<polygon class="st6" points="31.6,25.2 31.5,24.9 31.3,25 	"/>
	<polygon class="st6" points="31.6,25.2 31.3,25 31.4,24.9 	"/>
	<polygon class="st6" points="31.2,25.2 31.5,25 31.4,24.9 	"/>
	<polygon class="st6" points="31.2,25.2 31.3,24.9 31.5,25 	"/>
	<polygon class="st6" points="29.8,24.4 29.7,24.7 29.8,24.8 	"/>
	<polygon class="st6" points="29.8,24.4 29.9,24.7 29.7,24.8 	"/>
	<polygon class="st6" points="30,24.6 29.8,24.6 29.8,24.8 	"/>
	<polygon class="st6" points="30,24.6 29.8,24.8 29.7,24.7 	"/>
	<polygon class="st6" points="29.5,24.6 29.7,24.8 29.8,24.7 	"/>
	<polygon class="st6" points="29.5,24.6 29.8,24.6 29.8,24.8 	"/>
	<polygon class="st6" points="29.9,25 29.9,24.7 29.7,24.7 	"/>
	<polygon class="st6" points="29.9,25 29.7,24.8 29.8,24.7 	"/>
	<polygon class="st6" points="29.6,25 29.8,24.8 29.8,24.7 	"/>
	<polygon class="st6" points="29.6,25 29.7,24.7 29.8,24.7 	"/>
	<polygon class="st6" points="23.6,24 23.5,24.4 23.7,24.5 	"/>
	<polygon class="st6" points="23.6,24 23.8,24.4 23.6,24.5 	"/>
	<polygon class="st6" points="24,24.3 23.6,24.3 23.6,24.5 	"/>
	<polygon class="st6" points="24,24.3 23.7,24.5 23.6,24.4 	"/>
	<polygon class="st6" points="23.2,24.3 23.6,24.5 23.7,24.4 	"/>
	<polygon class="st6" points="23.2,24.3 23.7,24.3 23.7,24.5 	"/>
	<polygon class="st6" points="23.9,24.8 23.8,24.4 23.6,24.4 	"/>
	<polygon class="st6" points="23.9,24.8 23.5,24.5 23.7,24.4 	"/>
	<polygon class="st6" points="23.4,24.8 23.7,24.5 23.6,24.4 	"/>
	<polygon class="st6" points="23.4,24.8 23.5,24.4 23.7,24.4 	"/>
	<polygon class="st6" points="27.6,26.8 27.6,26.9 27.6,26.9 	"/>
	<polygon class="st6" points="27.6,26.8 27.6,26.9 27.6,26.9 	"/>
	<polygon class="st6" points="27.7,26.9 27.6,26.9 27.6,26.9 	"/>
	<polygon class="st6" points="27.7,26.9 27.6,26.9 27.6,26.9 	"/>
	<polygon class="st6" points="27.5,26.9 27.6,26.9 27.6,26.9 	"/>
	<polygon class="st6" points="27.5,26.9 27.6,26.9 27.6,26.9 	"/>
	<polygon class="st6" points="27.7,27 27.6,26.9 27.6,26.9 	"/>
	<polygon class="st6" points="27.7,27 27.6,26.9 27.6,26.9 	"/>
	<polygon class="st6" points="27.5,27 27.6,26.9 27.6,26.9 	"/>
	<polygon class="st6" points="27.5,27 27.6,26.9 27.6,26.9 	"/>
</g>
</svg>
