<svg xmlns="http://www.w3.org/2000/svg" viewBox="0 0 453.54 451.64"><defs><style>.cls-1{isolation:isolate;}.cls-2,.cls-5{fill:#333;}.cls-3{font-size:27.99px;}.cls-26,.cls-3{fill:#fff;}.cls-3,.cls-5{font-family:Montserrat-SemiBold, Montserrat;font-weight:600;}.cls-4{letter-spacing:-0.04em;}.cls-5{font-size:24.26px;}.cls-6{letter-spacing:-0.02em;}.cls-7{letter-spacing:-0.01em;}.cls-8{fill:#df572d;}.cls-9{fill:#4d4d4d;}.cls-10{fill:#f2e3c3;}.cls-11{fill:#f4ca4b;}.cls-12{fill:#a3a381;}.cls-12,.cls-23,.cls-24,.cls-28{mix-blend-mode:multiply;}.cls-13{fill:#ccc;}.cls-14{fill:#f2f2f2;}.cls-15{fill:#e5e5e5;}.cls-16{fill:#b3b3b3;}.cls-17{fill:#fea639;}.cls-18{fill:#4f485f;}.cls-19{fill:#665c7a;}.cls-20{fill:#f5ca4e;}.cls-21{fill:#f8cf15;}.cls-22{fill:#f3b012;}.cls-23{fill:#d0c5ba;}.cls-24{fill:#aba18f;}.cls-25{fill:#534b64;}.cls-26{opacity:0.1;}.cls-27{fill:#4c455c;}.cls-28{fill:#c7c5ce;}.cls-29{fill:#e7ecec;}.cls-30{fill:#e1e4e4;}.cls-31{fill:#e1e7e7;}</style></defs><g class="cls-1"><g id="Layer_2" data-name="Layer 2"><g id="Layer_4" data-name="Layer 4"><path class="cls-2" d="M226.77,0C101.53,0,0,101.1,0,225.82S101.53,451.64,226.77,451.64s226.77-101.1,226.77-225.82S352,0,226.77,0ZM171.85,333.07a61.05,61.05,0,1,1,61.05,60.8A60.92,60.92,0,0,1,171.85,333.07Zm57.46,88.43c53.1-1.34,95.73-44.63,95.73-97.83,0-54-44-97.85-98.27-97.85S128.5,182,128.5,128c0-53.2,42.64-96.48,95.74-97.82.84,0,1.68,0,2.53,0s1.69,0,2.54,0c107.37,1.36,194,88.44,194,195.68S336.68,420.14,229.31,421.5Z"/><path class="cls-2" d="M308.83,130a73.42,73.42,0,1,1-73.41-73.11A73.26,73.26,0,0,1,308.83,130Z"/><text class="cls-3" transform="translate(56.45 258.36)"><tspan class="cls-4">V</tspan><tspan x="19.37" y="0">AREJO</tspan></text><text class="cls-5" transform="translate(272.6 225.82)">EDU<tspan class="cls-6" x="55.43" y="0">C</tspan><tspan class="cls-7" x="72.7" y="0">A</tspan><tspan class="cls-6" x="90.62" y="0">Ç</tspan><tspan class="cls-7" x="107.9" y="0">Ã</tspan><tspan x="125.82" y="0">O</tspan></text><rect class="cls-8" x="269.33" y="320.65" width="11.84" height="5.07" transform="translate(-32.95 31.26) rotate(-6.13)"/><path class="cls-9" d="M283.94,323.7l-.05-.53-.8-.24.73-.39-.07-.61-.47-.17.43-.27-.07-.58.72.17.64.14h0c.11,0,.15.06.15.14l.17,1.58c0,.08,0,.1-.12.17h0l-.6.28Z"/><polygon class="cls-10" points="281.41 325.07 280.87 320.03 284.39 321.05 284.36 321.08 283.71 321.49 283.28 321.76 283.75 321.93 284.52 322.18 283.82 322.54 283.09 322.93 283.89 323.17 284.61 323.39 284.65 323.4 281.41 325.07"/><path class="cls-11" d="M284.74,306.09l-41.07,20.62,3.93,7.84,41.07-20.61Zm-2.16,4.1a1.22,1.22,0,1,1,1.64.54A1.23,1.23,0,0,1,282.58,310.19Z"/><rect class="cls-12" x="285.19" y="312.23" width="1.05" height="3.01" transform="translate(-110.47 161.74) rotate(-26.69)"/><rect class="cls-12" x="283.61" y="313.76" width="0.82" height="2.37" transform="translate(-111.18 161.09) rotate(-26.68)"/><polygon class="cls-12" points="281.28 314.99 282.34 317.12 283.08 316.75 282.01 314.62 281.28 314.99"/><rect class="cls-12" x="279.93" y="315.6" width="0.83" height="2.38" transform="translate(-112.27 159.3) rotate(-26.64)"/><rect class="cls-12" x="277.84" y="315.93" width="1.04" height="3.01" transform="translate(-112.84 158.65) rotate(-26.66)"/><rect class="cls-12" x="276.25" y="317.45" width="0.83" height="2.38" transform="translate(-113.66 158.25) rotate(-26.7)"/><rect class="cls-12" x="274.41" y="318.37" width="0.82" height="2.38" transform="translate(-114.03 156.95) rotate(-26.61)"/><polygon class="cls-12" points="272.08 319.61 273.15 321.73 273.88 321.36 272.82 319.24 272.08 319.61"/><polygon class="cls-12" points="269.86 320.01 271.21 322.7 272.14 322.23 270.79 319.55 269.86 320.01"/><rect class="cls-12" x="268.89" y="321.14" width="0.82" height="2.37" transform="translate(-115.83 154.71) rotate(-26.6)"/><rect class="cls-12" x="267.05" y="322.07" width="0.83" height="2.37" transform="translate(-116.68 154.54) rotate(-26.68)"/><rect class="cls-12" x="265.22" y="322.99" width="0.82" height="2.37" transform="translate(-117.22 153.65) rotate(-26.66)"/><rect class="cls-12" x="263.12" y="323.31" width="1.04" height="3.01" transform="translate(-117.68 152.75) rotate(-26.65)"/><rect class="cls-12" x="261.54" y="324.83" width="0.82" height="2.37" transform="translate(-118.47 152.28) rotate(-26.67)"/><rect class="cls-12" x="259.7" y="325.76" width="0.82" height="2.38" transform="translate(-118.93 151.23) rotate(-26.62)"/><rect class="cls-12" x="257.86" y="326.68" width="0.82" height="2.38" transform="translate(-119.59 150.6) rotate(-26.64)"/><rect class="cls-12" x="255.77" y="327" width="1.04" height="3.01" transform="translate(-120.06 149.72) rotate(-26.63)"/><rect class="cls-12" x="248.41" y="330.69" width="1.04" height="3.01" transform="translate(-122.56 146.96) rotate(-26.65)"/><rect class="cls-12" x="254.18" y="328.53" width="0.82" height="2.38" transform="translate(-120.99 149.53) rotate(-26.7)"/><rect class="cls-12" x="252.34" y="329.45" width="0.82" height="2.37" transform="translate(-121.44 148.48) rotate(-26.65)"/><rect class="cls-12" x="250.5" y="330.37" width="0.82" height="2.37" transform="translate(-122.05 147.75) rotate(-26.65)"/><path class="cls-13" d="M185.38,316.62l2.65.51c-.25,2.38-1.12,5.23-2.74,5.07-2.42-.32-2.9-6.11-1.93-8.27a5.76,5.76,0,0,1,4.35-3.21c1.32-.29,2.48-.46,3.28.08l0,0c.66.45,1.08,1.38,1.2,3.1l11.56,4.55V319l-16.52-6a.88.88,0,0,0-.32-.12C186,312.72,184.9,314.6,185.38,316.62Z"/><path class="cls-14" d="M203.8,316.75v1.73l-11.56-4.55c-.12-1.72-.54-2.65-1.2-3.1Z"/><path class="cls-15" d="M203.8,319v5.74l-18.51-2.57c1.62.16,2.49-2.69,2.74-5.07a11.19,11.19,0,0,0,0-2.45,2.55,2.55,0,0,0-.77-1.7Z"/><path class="cls-16" d="M188,317.13l-2.65-.51c-.48-2,.63-3.9,1.58-3.76l.32.12a2.55,2.55,0,0,1,.77,1.7A11.19,11.19,0,0,1,188,317.13Z"/><rect class="cls-17" x="197.31" y="315.94" width="15.43" height="20.47" transform="translate(-39.29 28.29) rotate(-7.21)"/><rect class="cls-18" x="203.51" y="312.04" width="65.89" height="48.61"/><path class="cls-19" d="M271.61,310.08v33.29c-7.68,2.69-20.6,4.45-35.26,4.45-14.46,0-27.24-1.71-34.95-4.35V310.08Z"/><path class="cls-18" d="M249.91,307.3H247a6,6,0,0,0-6-6h-9.08a6,6,0,0,0-6,6h-3a9,9,0,0,1,9-8.95h9.08A9,9,0,0,1,249.91,307.3Z"/><rect class="cls-20" x="221.89" y="307.3" width="4.88" height="4.12"/><rect class="cls-20" x="246.13" y="307.3" width="4.88" height="4.12"/><rect class="cls-21" x="231.74" y="341.86" width="9.52" height="11.91"/><path class="cls-22" d="M240.16,346.6v0h-7.33v0a3.67,3.67,0,1,1,7.33,0Z"/><rect class="cls-22" x="232.83" y="348.13" width="7.33" height="1.66"/><path class="cls-23" d="M269.45,344.07v7.07H203.56v-7c7.82,2.24,19.63,3.68,32.84,3.68S261.64,346.36,269.45,344.07Z"/><polygon class="cls-24" points="275.25 310.86 275.25 325.73 271.61 326.12 271.61 312.68 275.25 310.86"/><polygon class="cls-24" points="201.4 315.65 201.4 336.95 198.65 337.29 197.42 327.55 197.42 313.8 201.4 315.65"/><polygon class="cls-19" points="236.28 146.72 236.28 150.25 260.79 138.73 267.2 135.72 282.56 128.5 282.56 124.97 278.11 127.07 257.42 136.79 236.28 146.72"/><polygon class="cls-25" points="190 124.97 194.45 127.07 213.84 136.18 236.28 146.72 257.42 136.79 278.11 127.07 282.56 124.97 236.28 110.05 190 124.97"/><polygon class="cls-26" points="236.28 110.05 236.28 146.72 257.42 136.79 278.11 127.07 282.57 124.98 236.28 110.05"/><path class="cls-27" d="M202.74,134.48v14c0,9,14.43,16.31,32.23,16.31s32.23-7.3,32.23-16.31V135.72l-6.41,3-24.51,11.52-26-12.23Z"/><path class="cls-28" d="M202.74,134.48V142c8,.41,17.42,4.81,25.21,12.57a48.35,48.35,0,0,1,7.88,10.2l1.27,0A48.21,48.21,0,0,1,245,154.57c6.86-6.83,14.94-11,22.25-12.25v-6.6l-6.41,3-24.51,11.52-26-12.23Z"/><polygon class="cls-19" points="190 124.97 190 128.5 202.74 134.48 210.25 138.02 236.28 150.25 236.28 146.72 213.84 136.18 194.45 127.07 190 124.97"/><path class="cls-29" d="M259.42,156.28a2.12,2.12,0,0,0,2.12-2.11V135.85a2.11,2.11,0,0,0-1.37-2L237,125.21a2.11,2.11,0,1,0-1.49,4l21.77,8.15v16.86A2.11,2.11,0,0,0,259.42,156.28Z"/><path class="cls-14" d="M258.93,150.08l.18,0a.31.31,0,0,0-.13,0Z"/><path class="cls-30" d="M251.65,169a1.54,1.54,0,0,0,2-.8l2.75-6.48-1.08,8.16a1.51,1.51,0,0,0,1.31,1.71h.2a1.52,1.52,0,0,0,1.51-1.33l1.07-8,1.07,8A1.53,1.53,0,0,0,262,171.6h.19a1.53,1.53,0,0,0,1.32-1.71l-1.09-8.16,2.76,6.48A1.53,1.53,0,0,0,268,167l-7.17-16.89a.3.3,0,0,0-.06-.11,1.48,1.48,0,0,0-.13-.21,1.37,1.37,0,0,0-.16-.18.79.79,0,0,0-.18-.14,1.4,1.4,0,0,0-.44-.22l-.16,0a1.75,1.75,0,0,0-.56,0l-.16,0a1.51,1.51,0,0,0-.44.22l-.18.14-.16.18a1.48,1.48,0,0,0-.13.21.6.6,0,0,0-.06.11L250.84,167A1.51,1.51,0,0,0,251.65,169Z"/><path class="cls-14" d="M259.82,149.25a.27.27,0,0,0-.12,0l.16,0Z"/><path class="cls-31" d="M254.23,154.36a5.19,5.19,0,1,0,5.19-5.17A5.18,5.18,0,0,0,254.23,154.36Z"/></g></g></g></svg>