<?xml version="1.0" encoding="utf-8"?>
<!-- Generator: Adobe Illustrator 26.0.0, SVG Export Plug-In . SVG Version: 6.00 Build 0)  -->
<svg version="1.1" id="Layer_1" xmlns="http://www.w3.org/2000/svg" xmlns:xlink="http://www.w3.org/1999/xlink" x="0px" y="0px"
	 viewBox="0 0 453.5 451.6" style="enable-background:new 0 0 453.5 451.6;" xml:space="preserve">
<style type="text/css">
	.st0{fill:#333333;}
	.st1{enable-background:new    ;}
	.st2{fill:#FFFFFF;}
	.st3{display:none;enable-background:new    ;}
	.st4{display:inline;fill:#333333;}
	.st5{fill:#DF572D;}
	.st6{fill:#4D4D4D;}
	.st7{fill:#F2E3C3;}
	.st8{fill:#F4CA4B;}
	.st9{fill:#A3A381;}
	.st10{fill:#CCCCCC;}
	.st11{fill:#F2F2F2;}
	.st12{fill:#E5E5E5;}
	.st13{fill:#B3B3B3;}
	.st14{fill:#FEA639;}
	.st15{fill:#4F485F;}
	.st16{fill:#665C7A;}
	.st17{fill:#F5CA4E;}
	.st18{fill:#F8CF15;}
	.st19{fill:#F3B012;}
	.st20{fill:#D0C5BA;}
	.st21{fill:#ABA18F;}
	.st22{fill:#534B64;}
	.st23{opacity:0.1;fill:#FFFFFF;enable-background:new    ;}
	.st24{fill:#4C455C;}
	.st25{fill:#C7C5CE;}
	.st26{fill:#E7ECEC;}
	.st27{fill:#E1E4E4;}
	.st28{fill:#E1E7E7;}
</style>
<g>
	<g id="Layer_2_00000008124988952323801830000008182391508140159145_">
		<g id="Layer_4">
			<path class="st0" d="M226.8,0C101.5,0,0,101.1,0,225.8s101.5,225.8,226.8,225.8s226.8-101.1,226.8-225.8S352,0,226.8,0z
				 M171.9,333.1c-0.1-33.7,27.1-61.2,60.8-61.3c33.7-0.1,61.2,27.1,61.3,60.8c0.1,33.7-27.1,61.2-60.8,61.3c-0.1,0-0.2,0-0.2,0
				C199.3,393.9,171.9,366.7,171.9,333.1C171.9,333.1,171.9,333.1,171.9,333.1z M229.3,421.5c53.1-1.3,95.7-44.6,95.7-97.8
				c0-54-44-97.9-98.3-97.9S128.5,182,128.5,128c0-53.2,42.6-96.5,95.7-97.8c0.8,0,1.7,0,2.5,0s1.7,0,2.5,0
				c107.4,1.4,194,88.4,194,195.7S336.7,420.1,229.3,421.5z"/>
			<path class="st0" d="M308.8,130c0.2,40.5-32.6,73.6-73.1,73.7s-73.6-32.6-73.7-73.1s32.6-73.6,73.1-73.7c0.1,0,0.2,0,0.3,0
				C275.9,56.8,308.7,89.5,308.8,130C308.8,130,308.8,130,308.8,130z"/>
			<g class="st1">
			</g>
			<g class="st1">
				<path class="st2" d="M90.6,258.4l-3.8-5.5h-0.2h-3.9v5.5h-4.5v-19.6h8.5c5.2,0,8.5,2.7,8.5,7.1c0,2.9-1.5,5.1-4,6.2l4.4,6.3
					H90.6z M86.4,242.5h-3.7v6.8h3.7c2.8,0,4.2-1.3,4.2-3.4C90.5,243.7,89.1,242.5,86.4,242.5z"/>
				<path class="st2" d="M113.9,254.7v3.6H98.7v-19.6h14.8v3.6h-10.3v4.3h9.1v3.5h-9.1v4.5H113.9z"/>
				<path class="st2" d="M121.6,242.5h-6.3v-3.7h17.1v3.7h-6.3v15.9h-4.5V242.5z"/>
				<path class="st2" d="M146.7,254.2h-9.1l-1.7,4.2h-4.6l8.7-19.6h4.5l8.8,19.6h-4.8L146.7,254.2z M145.3,250.7l-3.1-7.5l-3.1,7.5
					H145.3z"/>
				<path class="st2" d="M155.3,238.8h4.5v19.6h-4.5V238.8z"/>
				<path class="st2" d="M164.4,238.8h4.5v15.9h9.8v3.7h-14.4V238.8z"/>
			</g>
			<g class="st1">
				<path class="st0" d="M277.7,222.7v3.2h-13.1v-17h12.8v3.2h-8.9v3.7h7.9v3.1h-7.9v3.9H277.7z"/>
				<path class="st0" d="M280.8,208.9h7.7c5.6,0,9.4,3.3,9.4,8.5s-3.8,8.5-9.4,8.5h-7.7V208.9z M288.3,222.6c3.4,0,5.6-2,5.6-5.3
					s-2.2-5.3-5.6-5.3h-3.6v10.5H288.3z"/>
				<path class="st0" d="M300.7,218.4v-9.5h3.9v9.4c0,3.2,1.4,4.6,3.8,4.6c2.4,0,3.8-1.3,3.8-4.6v-9.4h3.9v9.5c0,5-2.9,7.8-7.7,7.8
					S300.7,223.4,300.7,218.4z"/>
				<path class="st0" d="M318.9,217.3c0-5.1,3.9-8.8,9.2-8.8c2.9,0,5.4,1.1,7,3l-2.5,2.3c-1.1-1.3-2.6-2-4.3-2
					c-3.2,0-5.4,2.2-5.4,5.4c0,3.2,2.3,5.4,5.4,5.4c1.7,0,3.1-0.7,4.3-2l2.5,2.3c-1.6,2-4.1,3-7,3
					C322.8,226.1,318.9,222.5,318.9,217.3z"/>
				<path class="st0" d="M348.6,222.2h-7.9l-1.5,3.6h-4l7.6-17h3.9l7.6,17h-4.1L348.6,222.2z M347.3,219.2l-2.7-6.5l-2.7,6.5H347.3z
					"/>
				<path class="st0" d="M358.6,212.1h-5.4v-3.2H368v3.2h-5.4v13.8h-3.9V212.1z"/>
				<path class="st0" d="M370.1,208.9h3.9v17h-3.9V208.9z"/>
				<path class="st0" d="M377,217.3c0-5,3.9-8.8,9.3-8.8c5.3,0,9.3,3.7,9.3,8.8c0,5.1-4,8.8-9.3,8.8
					C380.9,226.1,377,222.4,377,217.3z M391.6,217.3c0-3.2-2.3-5.4-5.3-5.4c-3,0-5.3,2.2-5.3,5.4c0,3.2,2.3,5.4,5.3,5.4
					C389.3,222.8,391.6,220.6,391.6,217.3z"/>
				<path class="st0" d="M414.1,208.9v17h-3.2l-8.5-10.3v10.3h-3.9v-17h3.3l8.4,10.3v-10.3H414.1z"/>
			</g>
			<g class="st3">
				<path class="st4" d="M329.1,217.3c0-5.1,3.9-8.7,9.1-8.7c2.8,0,5.1,1,6.7,2.8l-2,1.9c-1.2-1.3-2.8-2-4.5-2c-3.5,0-6.1,2.5-6.1,6
					c0,3.5,2.5,6,6.1,6c1.8,0,3.3-0.7,4.5-2l2,1.9c-1.6,1.8-4,2.8-6.7,2.8C333,226.1,329.1,222.4,329.1,217.3z"/>
			</g>
			<g class="st3">
				<path class="st4" d="M358.6,221.9h-8.5l-1.7,3.9h-3.3l7.6-17h3.1l7.7,17h-3.3L358.6,221.9z M357.6,219.4l-3.2-7.4l-3.2,7.4
					H357.6z"/>
			</g>
			<g class="st3">
				<path class="st4" d="M378.1,221.3l2,1.9c-1.5,1.8-3.8,2.8-6.5,2.8l-0.2,0.9c1.4,0.2,2.1,1,2.1,2c0,1.4-1.3,2.3-3.3,2.3
					c-0.9,0-1.6-0.2-2.2-0.5l0.6-1.4c0.5,0.3,1,0.4,1.6,0.4c0.9,0,1.3-0.3,1.3-0.9c0-0.5-0.4-0.8-1.3-0.8h-0.8l0.6-2.1
					c-4.5-0.6-7.7-4.1-7.7-8.7c0-5.1,3.9-8.7,9.1-8.7c2.8,0,5.1,1,6.7,2.8l-2,1.9c-1.2-1.3-2.8-2-4.5-2c-3.5,0-6.1,2.5-6.1,6
					c0,3.5,2.5,6,6.1,6C375.3,223.3,376.8,222.6,378.1,221.3z"/>
			</g>
			<g class="st3">
				<path class="st4" d="M393.8,221.9h-8.5l-1.7,3.9h-3.3l7.6-17h3.1l7.7,17h-3.3L393.8,221.9z M386.8,207.3h-1.6
					c0-2,1.1-3.3,2.6-3.3c1.6,0,2.4,1.6,3.3,1.6c0.7,0,1.1-0.5,1.2-1.4h1.6c0,1.9-1.1,3.2-2.6,3.2c-1.6,0-2.4-1.6-3.3-1.6
					C387.3,205.9,386.9,206.4,386.8,207.3z M392.8,219.4l-3.2-7.4l-3.2,7.4H392.8z"/>
			</g>
			<g class="st3">
				<path class="st4" d="M399.5,217.3c0-5,3.9-8.7,9.1-8.7c5.3,0,9.1,3.7,9.1,8.7c0,5-3.9,8.7-9.1,8.7
					C403.4,226.1,399.5,222.4,399.5,217.3z M414.6,217.3c0-3.5-2.5-6-6-6s-6,2.5-6,6c0,3.5,2.5,6,6,6S414.6,220.8,414.6,217.3z"/>
			</g>
			
				<rect x="269.3" y="320.7" transform="matrix(0.9943 -0.1068 0.1068 0.9943 -32.9395 31.2392)" class="st5" width="11.8" height="5.1"/>
			<path class="st6" d="M283.9,323.7l0-0.5l-0.8-0.2l0.7-0.4l-0.1-0.6l-0.5-0.2l0.4-0.3l-0.1-0.6l0.7,0.2l0.6,0.1l0,0
				c0.1,0,0.1,0.1,0.1,0.1l0.2,1.6c0,0.1,0,0.1-0.1,0.2l0,0l-0.6,0.3L283.9,323.7z"/>
			<polygon class="st7" points="281.4,325.1 280.9,320 284.4,321 284.4,321.1 283.7,321.5 283.3,321.8 283.8,321.9 284.5,322.2 
				283.8,322.5 283.1,322.9 283.9,323.2 284.6,323.4 284.6,323.4 			"/>
			<path class="st8" d="M284.7,306.1l-41.1,20.6l3.9,7.8l41.1-20.6L284.7,306.1z M282.6,310.2c-0.3-0.6-0.1-1.3,0.5-1.6
				c0.6-0.3,1.3-0.1,1.6,0.5c0.3,0.6,0.1,1.3-0.5,1.6C283.6,311,282.9,310.8,282.6,310.2z"/>
			
				<rect x="285.2" y="312.2" transform="matrix(0.8934 -0.4492 0.4492 0.8934 -110.4651 161.7612)" class="st9" width="1" height="3"/>
			
				<rect x="283.6" y="313.8" transform="matrix(0.8935 -0.449 0.449 0.8935 -111.1868 161.0596)" class="st9" width="0.8" height="2.4"/>
			<polygon class="st9" points="281.3,315 282.3,317.1 283.1,316.8 282,314.6 			"/>
			
				<rect x="279.9" y="315.6" transform="matrix(0.8938 -0.4484 0.4484 0.8938 -112.2667 159.3341)" class="st9" width="0.8" height="2.4"/>
			
				<rect x="277.8" y="315.9" transform="matrix(0.8937 -0.4487 0.4487 0.8937 -112.8393 158.6462)" class="st9" width="1" height="3"/>
			
				<rect x="276.3" y="317.4" transform="matrix(0.8934 -0.4493 0.4493 0.8934 -113.6529 158.2878)" class="st9" width="0.8" height="2.4"/>
			
				<rect x="274.4" y="318.4" transform="matrix(0.8941 -0.4479 0.4479 0.8941 -114.0284 156.9437)" class="st9" width="0.8" height="2.4"/>
			<polygon class="st9" points="272.1,319.6 273.1,321.7 273.9,321.4 272.8,319.2 			"/>
			<polygon class="st9" points="269.9,320 271.2,322.7 272.1,322.2 270.8,319.5 			"/>
			
				<rect x="268.9" y="321.2" transform="matrix(0.8942 -0.4478 0.4478 0.8942 -115.826 154.6949)" class="st9" width="0.8" height="2.4"/>
			
				<rect x="267" y="322.1" transform="matrix(0.8935 -0.449 0.449 0.8935 -116.6807 154.5081)" class="st9" width="0.8" height="2.4"/>
			
				<rect x="265.2" y="323" transform="matrix(0.8937 -0.4487 0.4487 0.8937 -117.215 153.6493)" class="st9" width="0.8" height="2.4"/>
			
				<rect x="263.1" y="323.3" transform="matrix(0.8938 -0.4485 0.4485 0.8938 -117.679 152.7609)" class="st9" width="1" height="3"/>
			
				<rect x="261.5" y="324.8" transform="matrix(0.8936 -0.4489 0.4489 0.8936 -118.4711 152.2609)" class="st9" width="0.8" height="2.4"/>
			
				<rect x="259.7" y="325.8" transform="matrix(0.894 -0.4481 0.4481 0.894 -118.9363 151.2054)" class="st9" width="0.8" height="2.4"/>
			
				<rect x="257.9" y="326.7" transform="matrix(0.8938 -0.4484 0.4484 0.8938 -119.5889 150.6108)" class="st9" width="0.8" height="2.4"/>
			<rect x="255.8" y="327" transform="matrix(0.8939 -0.4482 0.4482 0.8939 -120.056 149.7225)" class="st9" width="1" height="3"/>
			
				<rect x="248.4" y="330.7" transform="matrix(0.8938 -0.4485 0.4485 0.8938 -122.5635 146.9463)" class="st9" width="1" height="3"/>
			
				<rect x="254.2" y="328.5" transform="matrix(0.8934 -0.4493 0.4493 0.8934 -120.9927 149.5534)" class="st9" width="0.8" height="2.4"/>
			
				<rect x="252.4" y="329.4" transform="matrix(0.8938 -0.4485 0.4485 0.8938 -121.444 148.4975)" class="st9" width="0.8" height="2.4"/>
			
				<rect x="250.5" y="330.4" transform="matrix(0.8938 -0.4485 0.4485 0.8938 -122.0512 147.7689)" class="st9" width="0.8" height="2.4"/>
			<path class="st10" d="M185.4,316.6l2.6,0.5c-0.2,2.4-1.1,5.2-2.7,5.1c-2.4-0.3-2.9-6.1-1.9-8.3c0.8-1.7,2.5-2.9,4.4-3.2
				c1.3-0.3,2.5-0.5,3.3,0.1l0,0c0.7,0.5,1.1,1.4,1.2,3.1l11.6,4.5v0.5l-16.5-6c-0.1-0.1-0.2-0.1-0.3-0.1
				C186,312.7,184.9,314.6,185.4,316.6z"/>
			<path class="st11" d="M203.8,316.8v1.7l-11.6-4.5c-0.1-1.7-0.5-2.6-1.2-3.1L203.8,316.8z"/>
			<path class="st12" d="M203.8,319v5.7l-18.5-2.6c1.6,0.2,2.5-2.7,2.7-5.1c0.1-0.8,0.1-1.6,0-2.5c0-0.6-0.3-1.3-0.8-1.7L203.8,319z
				"/>
			<path class="st13" d="M188,317.1l-2.6-0.5c-0.5-2,0.6-3.9,1.6-3.8l0.3,0.1c0.5,0.4,0.7,1.1,0.8,1.7
				C188.1,315.5,188.1,316.3,188,317.1z"/>
			
				<rect x="197.3" y="315.9" transform="matrix(0.9921 -0.1255 0.1255 0.9921 -39.313 28.3142)" class="st14" width="15.4" height="20.5"/>
			<rect x="203.5" y="312" class="st15" width="65.9" height="48.6"/>
			<path class="st16" d="M271.6,310.1v33.3c-7.7,2.7-20.6,4.5-35.3,4.5c-14.5,0-27.2-1.7-34.9-4.4v-33.4H271.6z"/>
			<path class="st15" d="M249.9,307.3H247c0-3.3-2.7-6-6-6h-9.1c-3.3,0-6,2.7-6,6h-3c0-5,4-9,9-9h9.1
				C245.9,298.4,249.9,302.4,249.9,307.3z"/>
			<rect x="221.9" y="307.3" class="st17" width="4.9" height="4.1"/>
			<rect x="246.1" y="307.3" class="st17" width="4.9" height="4.1"/>
			<rect x="231.7" y="341.9" class="st18" width="9.5" height="11.9"/>
			<path class="st19" d="M240.2,346.6L240.2,346.6h-7.3l0,0c-0.1-2,1.4-3.8,3.5-3.9c2-0.1,3.8,1.4,3.9,3.5
				C240.2,346.3,240.2,346.5,240.2,346.6z"/>
			<rect x="232.8" y="348.1" class="st19" width="7.3" height="1.7"/>
			<path class="st20" d="M269.5,344.1v7.1h-65.9v-7c7.8,2.2,19.6,3.7,32.8,3.7S261.6,346.4,269.5,344.1z"/>
			<polygon class="st21" points="275.2,310.9 275.2,325.7 271.6,326.1 271.6,312.7 			"/>
			<polygon class="st21" points="201.4,315.6 201.4,337 198.6,337.3 197.4,327.5 197.4,313.8 			"/>
			<polygon class="st16" points="236.3,146.7 236.3,150.2 260.8,138.7 267.2,135.7 282.6,128.5 282.6,125 278.1,127.1 257.4,136.8 
							"/>
			<polygon class="st22" points="190,125 194.4,127.1 213.8,136.2 236.3,146.7 257.4,136.8 278.1,127.1 282.6,125 236.3,110.1 			
				"/>
			<polygon class="st23" points="236.3,110.1 236.3,146.7 257.4,136.8 278.1,127.1 282.6,125 			"/>
			<path class="st24" d="M202.7,134.5v14c0,9,14.4,16.3,32.2,16.3s32.2-7.3,32.2-16.3v-12.8l-6.4,3l-24.5,11.5l-26-12.2L202.7,134.5
				z"/>
			<path class="st25" d="M202.7,134.5v7.5c8,0.4,17.4,4.8,25.2,12.6c3.1,3,5.7,6.5,7.9,10.2h1.3c2.2-3.7,4.8-7.2,7.9-10.2
				c6.9-6.8,14.9-11,22.2-12.2v-6.6l-6.4,3l-24.5,11.5l-26-12.2L202.7,134.5z"/>
			<polygon class="st16" points="190,125 190,128.5 202.7,134.5 210.2,138 236.3,150.2 236.3,146.7 213.8,136.2 194.4,127.1 			"/>
			<path class="st26" d="M259.4,156.3c1.2,0,2.1-0.9,2.1-2.1v-18.3c0-0.9-0.5-1.7-1.4-2l-23.2-8.6c-1.1-0.4-2.3,0.2-2.7,1.3
				c-0.4,1.1,0.2,2.3,1.3,2.7l0,0l21.8,8.1v16.9C257.3,155.4,258.3,156.3,259.4,156.3z"/>
			<path class="st11" d="M258.9,150.1h0.2C259.1,150.1,259,150.1,258.9,150.1L258.9,150.1z"/>
			<path class="st27" d="M251.6,169c0.8,0.3,1.7,0,2-0.8l2.8-6.5l-1.1,8.2c-0.1,0.8,0.5,1.6,1.3,1.7c0,0,0,0,0,0h0.2
				c0.8,0,1.4-0.6,1.5-1.3l1.1-8l1.1,8c0.1,0.8,0.7,1.3,1.5,1.3h0.2c0.8-0.1,1.4-0.9,1.3-1.7l-1.1-8.2l2.8,6.5
				c0.3,0.8,1.2,1.1,2,0.8s1.1-1.2,0.8-2l-7.2-16.9c0,0,0-0.1-0.1-0.1c0-0.1-0.1-0.1-0.1-0.2c0-0.1-0.1-0.1-0.2-0.2
				c-0.1-0.1-0.1-0.1-0.2-0.1c-0.1-0.1-0.3-0.2-0.4-0.2h-0.2c-0.2,0-0.4,0-0.6,0H259c-0.2,0-0.3,0.1-0.4,0.2l-0.2,0.1l-0.2,0.2
				c0,0.1-0.1,0.1-0.1,0.2c0,0,0,0.1-0.1,0.1l-7.2,16.9C250.5,167.8,250.9,168.7,251.6,169C251.6,169,251.6,169,251.6,169z"/>
			<path class="st11" d="M259.8,149.2c0,0-0.1,0-0.1,0H259.8L259.8,149.2z"/>
			<path class="st28" d="M254.2,154.4c0,2.9,2.3,5.2,5.2,5.2s5.2-2.3,5.2-5.2c0-2.9-2.3-5.2-5.2-5.2c0,0,0,0,0,0
				C256.6,149.2,254.2,151.5,254.2,154.4L254.2,154.4z"/>
		</g>
	</g>
</g>
</svg>
