<svg xmlns="http://www.w3.org/2000/svg" viewBox="0 0 80.17 80.17"><defs><style>.cls-1{fill:#424241;}.cls-2{fill:#ffae00;}.cls-3,.cls-4,.cls-7{fill:#ededed;}.cls-3,.cls-4,.cls-5,.cls-9{stroke:#424241;}.cls-10,.cls-3,.cls-4,.cls-5{stroke-miterlimit:10;}.cls-3{stroke-width:0.26px;}.cls-4,.cls-5,.cls-9{stroke-width:0.54px;}.cls-10,.cls-5,.cls-9{fill:none;}.cls-6,.cls-8{fill:#ff7400;stroke:#ff7400;}.cls-6,.cls-8,.cls-9{stroke-linecap:round;stroke-linejoin:round;}.cls-6{stroke-width:0.81px;}.cls-10,.cls-8{stroke-width:0.27px;}.cls-10{stroke:#fff;}.cls-11{fill:#fff;}</style></defs><g id="Layer_2" data-name="Layer 2"><g id="Layer_1-2" data-name="Layer 1"><text/><path class="cls-1" d="M40.08,80.17A40.09,40.09,0,1,1,80.17,40.08,40.13,40.13,0,0,1,40.08,80.17Zm0-76.78a36.7,36.7,0,1,0,36.7,36.69A36.73,36.73,0,0,0,40.08,3.39Z"/><path class="cls-2" d="M17.48,43.86A14.41,14.41,0,0,0,18,45.39c.44.93.88,1.87,1.39,2.76a32.91,32.91,0,0,1,3.21,7.41,28.61,28.61,0,0,1,1.09,8.68c0,.63.23.86.86.86H34.88c.63,0,.86-.23.86-.86s0-1.5,0-2.25V59.74H44.1c.84,0,1-.17,1-1V51h4.4c.85,0,1.09-.33.83-1.16-1-3.24-2-6.48-3-9.73a8.58,8.58,0,0,1-.26-1.34c-.09-.61-.14-1.22-.26-1.82a15,15,0,0,0-23-9.55,15.38,15.38,0,0,0-4.42,4.49A13.1,13.1,0,0,0,17.48,43.86Z"/><polygon class="cls-3" points="31.73 37.67 37.55 34.31 37.55 41.03 31.73 37.67"/><polygon class="cls-3" points="25.91 34.31 25.91 41.03 31.73 37.67 25.91 34.31"/><polygon class="cls-3" points="31.73 30.95 31.73 37.67 25.91 34.31 31.73 30.95"/><polygon class="cls-4" points="31.73 37.67 37.55 34.31 31.73 30.95 31.73 37.67"/><polygon class="cls-3" points="31.73 37.67 31.73 44.39 37.55 41.03 31.73 37.67"/><polygon class="cls-4" points="31.73 44.39 31.73 37.67 25.91 41.03 31.73 44.39"/><path class="cls-1" d="M43.22,54.1l-.92,0a3,3,0,0,1-2.73-1.64c0-.14-.09-.28-.13-.42l0-.15a.34.34,0,0,1,.66-.19l0,.17a2.24,2.24,0,0,0,.11.34,2.3,2.3,0,0,0,2.11,1.21c.5,0,1,0,1.51,0h1.29v.68h-1.9Z"/><line class="cls-5" x1="25.91" y1="34.31" x2="37.55" y2="41.03"/><line class="cls-5" x1="12.31" y1="37.67" x2="25.91" y2="37.67"/><polyline class="cls-5" points="12.97 31.61 15.03 31.63 17.48 34.3 25.91 34.31"/><polyline class="cls-5" points="25.91 41 17.48 41 15.03 43.68 12.97 43.69"/><polygon class="cls-5" points="25.91 34.31 25.91 41.03 31.73 44.39 37.55 41.03 37.55 34.31 31.73 30.95 25.91 34.31"/><path class="cls-6" d="M31.74,30.28a.68.68,0,0,1,.66.68.67.67,0,0,1-1.33,0A.67.67,0,0,1,31.74,30.28Z"/><path class="cls-6" d="M37.57,41.7a.67.67,0,0,1-.68-.65.68.68,0,0,1,.65-.69.67.67,0,0,1,.68.65A.68.68,0,0,1,37.57,41.7Z"/><path class="cls-6" d="M37.56,33.64a.67.67,0,1,1-.67.66A.68.68,0,0,1,37.56,33.64Z"/><path class="cls-6" d="M31.75,37a.67.67,0,0,1,.64.68.67.67,0,1,1-.64-.68Z"/><path class="cls-6" d="M26.58,41a.67.67,0,1,1-.65-.68A.67.67,0,0,1,26.58,41Z"/><path class="cls-6" d="M32.39,44.4a.68.68,0,0,1-.68.66.67.67,0,0,1-.65-.68.69.69,0,0,1,.68-.66A.67.67,0,0,1,32.39,44.4Z"/><path class="cls-6" d="M25.92,35a.67.67,0,1,1,.66-.68A.69.69,0,0,1,25.92,35Z"/><rect class="cls-7" x="41.93" y="22.59" width="25.83" height="20.43" rx="0.99"/><path class="cls-8" d="M61.83,38.68H60.61v-7h1.22Z"/><path class="cls-8" d="M52.68,38.68V33.44H53.9v5.24Z"/><path class="cls-8" d="M48.75,35.63H50v3H48.75Z"/><path class="cls-8" d="M57.86,38.68H56.64v-3h1.22Z"/><polyline class="cls-9" points="49.36 33.6 53.46 29.65 57.25 33.6 61.22 27.74"/><polyline class="cls-9" points="45.87 27.21 45.87 40.32 62.9 40.32"/><line class="cls-10" x1="41.93" y1="25.24" x2="67.76" y2="25.24"/><circle class="cls-11" cx="43.94" cy="23.98" r="0.37"/><circle class="cls-11" cx="44.98" cy="23.98" r="0.37"/><circle class="cls-11" cx="46.02" cy="23.98" r="0.37"/></g></g></svg>