<svg xmlns="http://www.w3.org/2000/svg" viewBox="0 0 80.17 80.17"><defs><style>.cls-1{fill:#424241;}.cls-2{fill:#fff;}.cls-3{fill:#333;}.cls-4{fill:#60605f;}.cls-5{fill:#ffae00;}.cls-6{fill:#ff7400;}.cls-7{fill:#ff92be;}.cls-8{fill:#ddf2e9;}.cls-9{fill:#aacdc1;}.cls-10{fill:#daf2e9;}</style></defs><g id="Layer_2" data-name="Layer 2"><g id="Layer_1-2" data-name="Layer 1"><path class="cls-1" d="M40.08,80.17A40.09,40.09,0,1,1,80.17,40.08,40.13,40.13,0,0,1,40.08,80.17Zm0-76.78a36.7,36.7,0,1,0,36.7,36.69A36.73,36.73,0,0,0,40.08,3.39Z"/><rect class="cls-2" x="14.82" y="19.47" width="50.53" height="34.46" rx="1.92"/><path class="cls-1" d="M63.43,54.76H16.74A2.76,2.76,0,0,1,14,52V21.39a2.76,2.76,0,0,1,2.75-2.75H63.43a2.76,2.76,0,0,1,2.75,2.75V52A2.76,2.76,0,0,1,63.43,54.76ZM16.74,20.29a1.11,1.11,0,0,0-1.1,1.1V52a1.1,1.1,0,0,0,1.1,1.09H63.43A1.09,1.09,0,0,0,64.52,52V21.39a1.1,1.1,0,0,0-1.09-1.1Z"/><rect class="cls-3" x="34.69" y="54.64" width="11.75" height="6.89"/><rect class="cls-1" x="26.24" y="60.02" width="28.83" height="1.51"/><path class="cls-1" d="M24.14,41.56a38.87,38.87,0,0,0,26.13.06q0-6.28,0-12.59C41.6,29,32.89,29,24.18,29Q24.17,35.25,24.14,41.56Z"/><path class="cls-4" d="M19.33,29.61,37.05,34.4a.63.63,0,0,0,.36,0l17.76-4.68a.7.7,0,0,0,0-1.35L37.45,23.58a.73.73,0,0,0-.36,0L19.33,28.26A.7.7,0,0,0,19.33,29.61Z"/><path class="cls-5" d="M27,38.51h0a.31.31,0,0,0,.32-.31l0-6.27,10-2.63a.33.33,0,0,0,.22-.39.31.31,0,0,0-.38-.22L26.7,31.45l0,6.75A.31.31,0,0,0,27,38.51Z"/><path class="cls-5" d="M25.17,40A5.88,5.88,0,0,0,29,40c0-.94,0-1.88,0-2.82a1.92,1.92,0,0,0-1.89-1.9h0a1.92,1.92,0,0,0-1.9,1.88C25.18,38.08,25.18,39,25.17,40Z"/><path class="cls-6" d="M57,44.9,56.48,43l1.53.43a4,4,0,0,0-1.78-1.66,6.39,6.39,0,0,0-2.13-.42s-5,2.1-2.8,2.08S55,43,57,44.9Z"/><path class="cls-7" d="M51.3,43.47l1.17-.87a3.77,3.77,0,0,1-.75.2A4.19,4.19,0,0,1,51.3,43.47Z"/><path class="cls-8" d="M55.72,31.79a3.73,3.73,0,0,0-2.45.92L49.54,35.6a3.74,3.74,0,0,1,1.56-.34,3.8,3.8,0,0,1,3,6.13l3.7-2.75a3.74,3.74,0,0,0-2.08-6.85Z"/><path class="cls-6" d="M51.1,35.26a3.74,3.74,0,0,0-1.56.34l-1.4,1.09-1.09.84a4.55,4.55,0,0,1,.66-.17,4.21,4.21,0,0,1,.62,0,3.8,3.8,0,0,1,3.79,3.8,3.69,3.69,0,0,1-.4,1.69,3.77,3.77,0,0,0,.75-.2l1.63-1.21a3.8,3.8,0,0,0-3-6.13Z"/><path class="cls-8" d="M48.33,37.31a4.21,4.21,0,0,0-.62,0,4.55,4.55,0,0,0-.66.17L45.18,39l-4.94,3.83,4.45,5.56,5-3.74,1.57-1.16a4.19,4.19,0,0,0,.42-.67,3.69,3.69,0,0,0,.4-1.69A3.8,3.8,0,0,0,48.33,37.31Z"/><path class="cls-9" d="M46.12,45.5a3.57,3.57,0,1,1-3.57-3.58A3.57,3.57,0,0,1,46.12,45.5Z"/><path class="cls-10" d="M42.55,49.47a4,4,0,1,1,4-4A4,4,0,0,1,42.55,49.47Zm0-7.14a3.17,3.17,0,1,0,3.17,3.17A3.18,3.18,0,0,0,42.55,42.33Z"/></g></g></svg>