<svg xmlns="http://www.w3.org/2000/svg" viewBox="0 0 80.17 80.17"><defs><style>.cls-1,.cls-4{fill:#424241;}.cls-2{fill:#ffae00;}.cls-2,.cls-3,.cls-4,.cls-5,.cls-6,.cls-7,.cls-8{fill-rule:evenodd;}.cls-3{fill:#ff9d00;}.cls-5{fill:#ededed;}.cls-6{fill:#ff7400;}.cls-7{fill:#c6c6c6;}.cls-8{fill:#2b2b2b;}</style></defs><g id="Layer_2" data-name="Layer 2"><g id="Layer_1-2" data-name="Layer 1"><path class="cls-1" d="M40.08,80.17A40.09,40.09,0,1,1,80.17,40.08,40.13,40.13,0,0,1,40.08,80.17Zm0-76.78a36.7,36.7,0,1,0,36.7,36.69A36.73,36.73,0,0,0,40.08,3.39Z"/><path class="cls-2" d="M27.67,26a7.19,7.19,0,0,0-7.17,4.46h0c-3.68,7.92-4.52,15-2,24.54l5.46,3.21,1.23-.91c3.22-7.46,5.9-6.51,15.1-7.37V27.78C34.14,27.91,30.35,26.13,27.67,26Z"/><path class="cls-2" d="M52.79,26A7.18,7.18,0,0,1,60,30.48h0c3.68,7.92,4.52,15,2,24.54l-5.45,3.21-1.23-.91c-3.23-7.46-5.91-6.51-15.1-7.37V27.78C46.31,27.91,50.1,26.13,52.79,26Z"/><path class="cls-3" d="M27.67,26a7.19,7.19,0,0,0-7.17,4.46h0c-3.68,7.92-4.52,15-2,24.54l5.46,3.21L19.47,55C17.21,45.46,18,38.41,21.31,30.49A7.52,7.52,0,0,1,27.93,26Z"/><path class="cls-3" d="M52.79,26A7.18,7.18,0,0,1,60,30.48h0c3.68,7.92,4.52,15,2,24.54l-5.45,3.21L60.47,55c2.26-9.57,2-16.62-1.33-24.54-1.93-3.25-3.84-4.23-6.62-4.45Z"/><path class="cls-4" d="M32.81,49a5.44,5.44,0,1,0-5.44-5.44A5.45,5.45,0,0,0,32.81,49Z"/><polygon class="cls-5" points="36.79 42.29 34.07 42.29 34.07 39.57 31.54 39.57 31.54 42.29 28.83 42.29 28.83 44.81 31.54 44.81 31.54 47.53 34.07 47.53 34.07 44.81 36.79 44.81 36.79 42.29"/><path class="cls-4" d="M47.65,49a5.44,5.44,0,1,0-5.44-5.44A5.45,5.45,0,0,0,47.65,49Z"/><path class="cls-6" d="M47.65,47.33a3.78,3.78,0,1,0-3.77-3.78A3.79,3.79,0,0,0,47.65,47.33Z"/><circle class="cls-1" cx="53.22" cy="32.92" r="5.09" transform="translate(2.53 69.61) rotate(-67.64)"/><path class="cls-5" d="M49.47,32.33l3.17-3.17a1.36,1.36,0,0,1,1.91,0h0a1.36,1.36,0,0,1,0,1.91l-3.17,3.17a1.35,1.35,0,0,1-1.91,0h0A1.36,1.36,0,0,1,49.47,32.33Z"/><path class="cls-7" d="M49.77,32.5a1,1,0,1,1,0,1.44A1,1,0,0,1,49.77,32.5Z"/><path class="cls-4" d="M52.81,29.47a1,1,0,1,1,0,1.43A1,1,0,0,1,52.81,29.47Z"/><path class="cls-5" d="M51.9,34.76l3.17-3.17a1.36,1.36,0,0,1,1.91,0h0a1.36,1.36,0,0,1,0,1.91l-3.17,3.17a1.36,1.36,0,0,1-1.91,0h0A1.36,1.36,0,0,1,51.9,34.76Z"/><path class="cls-2" d="M52.2,34.93a1,1,0,1,1,0,1.44A1,1,0,0,1,52.2,34.93Z"/><path class="cls-6" d="M55.24,31.9a1,1,0,1,1,0,1.43A1,1,0,0,1,55.24,31.9Z"/><path class="cls-4" d="M27.34,38a5.09,5.09,0,1,0-5.09-5.08A5.09,5.09,0,0,0,27.34,38Z"/><path class="cls-8" d="M27.34,35.48a2.57,2.57,0,1,0-2.56-2.56A2.56,2.56,0,0,0,27.34,35.48Z"/><path class="cls-2" d="M25.52,25.85h3.64V33c-.75,1.55-3.21,1.36-3.64,0Z"/><path class="cls-6" d="M27.17,29.33A4.34,4.34,0,1,0,22.84,25,4.35,4.35,0,0,0,27.17,29.33Z"/><path class="cls-3" d="M21.78,41.31l0,14.07-1.07-.86a24,24,0,0,1-.21-12.6Z"/><path class="cls-3" d="M58.68,41.31l0,14.07,1.08-.86a24.17,24.17,0,0,0,.2-12.6Z"/></g></g></svg>