<svg xmlns="http://www.w3.org/2000/svg" viewBox="0 0 80.17 80.17"><defs><style>.cls-1{isolation:isolate;}.cls-2{fill:#424241;}.cls-3,.cls-8{fill:#ffb127;}.cls-4{fill:#edbf5a;}.cls-4,.cls-7,.cls-8{mix-blend-mode:multiply;}.cls-4,.cls-8,.cls-9{opacity:0.5;}.cls-5,.cls-7,.cls-9{fill:#ffd454;}.cls-6{fill:#f8bd36;}.cls-7{opacity:0.4;}.cls-9{mix-blend-mode:screen;}</style></defs><g class="cls-1"><g id="Layer_2" data-name="Layer 2"><g id="Layer_1-2" data-name="Layer 1"><path class="cls-2" d="M40.08,80.17A40.09,40.09,0,1,1,80.17,40.08,40.13,40.13,0,0,1,40.08,80.17Zm0-76.78a36.7,36.7,0,1,0,36.7,36.69A36.73,36.73,0,0,0,40.08,3.39Z"/><path class="cls-3" d="M41.78,48.35l.07-11.72-2.62,0-.06,10.65h0v.92c-.06,1.52-.44,4.39-2.46,4.37l7.49.05C42.23,52.59,41.84,49.91,41.78,48.35Z"/><path class="cls-3" d="M29.2,24.61a5.22,5.22,0,0,1,1.53,1.24,4,4,0,0,1,.54,4.48A2.56,2.56,0,0,1,29,31.74a2.88,2.88,0,0,1-2.5-1.28,2.07,2.07,0,0,1,0-2.16,1,1,0,1,1,1.68,1c-.06.12,0,.15,0,.2a.94.94,0,0,0,.77.32.59.59,0,0,0,.56-.35.43.43,0,0,0,0-.07,2,2,0,0,0-.23-2.12l-.12-.15A3.23,3.23,0,0,0,26,26c-1.26.38-2.08,1.75-2.32,3.87C23.21,34,26.08,36.73,27.83,38a13.8,13.8,0,0,0,5.08,2.39,3,3,0,0,0,1.48.06,1,1,0,0,1,1.28.5.94.94,0,0,1,0,.88,1,1,0,0,1-.45.4,2.18,2.18,0,0,1-.79.19c-1.91.21-5.12-.93-7.71-2.85-3.61-2.66-5.36-6.18-4.95-9.92.45-4,2.51-5.16,3.69-5.51A5,5,0,0,1,29.2,24.61Z"/><path class="cls-4" d="M35.67,41a.94.94,0,0,1,0,.88,1,1,0,0,1-.45.4,2.18,2.18,0,0,1-.79.19,13.21,13.21,0,0,1-1.48-2,3,3,0,0,0,1.48.06A1,1,0,0,1,35.67,41Z"/><path class="cls-4" d="M29.2,24.61a5.22,5.22,0,0,1,1.53,1.24,4,4,0,0,1,.54,4.48,2.45,2.45,0,0,1-1.37,1.24c-.12-.75-.23-1.49-.32-2.2a2,2,0,0,0-.23-2.12C29.26,26.2,29.22,25.3,29.2,24.61Z"/><path class="cls-3" d="M51.52,24.6A5.06,5.06,0,0,0,50,25.79a4,4,0,0,0-.68,4.46,2.58,2.58,0,0,0,2.19,1.48A2.88,2.88,0,0,0,54,30.52a2.09,2.09,0,0,0,0-2.16,1,1,0,0,0-1.71.92c.07.12.05.16,0,.2a.91.91,0,0,1-.77.3.59.59,0,0,1-.55-.37.15.15,0,0,1,0-.07,2,2,0,0,1,.29-2.11l.12-.15a3.25,3.25,0,0,1,3.28-1c1.24.42,2,1.81,2.19,3.93.34,4.09-2.61,6.78-4.4,8a13.71,13.71,0,0,1-5.15,2.22,3,3,0,0,1-1.48,0,1,1,0,0,0-1.28,1.34A.92.92,0,0,0,45,42a2.55,2.55,0,0,0,.78.22c1.91.26,5.15-.79,7.8-2.63,3.68-2.54,5.54-6,5.24-9.76-.33-4-2.35-5.24-3.53-5.62A5,5,0,0,0,51.52,24.6Z"/><path class="cls-4" d="M44.56,40.75a.94.94,0,0,0,0,.88A.92.92,0,0,0,45,42a2.55,2.55,0,0,0,.78.22,12.79,12.79,0,0,0,1.54-2,3,3,0,0,1-1.48,0A1,1,0,0,0,44.56,40.75Z"/><path class="cls-4" d="M51.52,24.6A5.06,5.06,0,0,0,50,25.79a4,4,0,0,0-.68,4.46,2.48,2.48,0,0,0,1.33,1.28c.15-.75.28-1.48.4-2.19a2,2,0,0,1,.29-2.11C51.41,26.18,51.47,25.28,51.52,24.6Z"/><path class="cls-5" d="M50.35,23.19s0,.7-.05,1.85c-.23,4.56-1.49,16.2-8.16,19.51l-.33.28a2.2,2.2,0,0,1-1.48.5H40a2.19,2.19,0,0,1-1.28-.48l-.38-.31c-6.56-3.35-7.73-14.75-7.93-19.43-.06-1.25,0-2,0-2,0-1.13,1.32-1.41,1.32-1.41l17.35.1S50.36,22.07,50.35,23.19Z"/><path class="cls-6" d="M49.33,24.68l-18-.11a2,2,0,0,1-2-2h0a2,2,0,0,1,2-2l18,.1a2,2,0,0,1,2,2h0A2,2,0,0,1,49.33,24.68Z"/><path class="cls-7" d="M50.35,23.19s0,.7-.05,1.85a1.88,1.88,0,0,1-1.11.35l-18-.11a1.85,1.85,0,0,1-.81-.18c-.06-1.25,0-2,0-2,0-1.13,1.32-1.41,1.32-1.41l17.35.1S50.36,22.07,50.35,23.19Z"/><path class="cls-3" d="M49.33,24.68l-18-.11a2,2,0,0,1-2-2h0a2,2,0,0,1,2-2l18,.1a2,2,0,0,1,2,2h0A2,2,0,0,1,49.33,24.68Z"/><path class="cls-3" d="M49.33,24.68l-18-.11a2,2,0,0,1-2-2h0a2,2,0,0,1,2-2l18,.1a2,2,0,0,1,2,2h0A2,2,0,0,1,49.33,24.68Z"/><path class="cls-3" d="M48.77,62.56,32,62.47l.05-7.63a1.28,1.28,0,0,1,1.29-1.28l14.18.08a1.29,1.29,0,0,1,1.28,1.3Z"/><rect class="cls-3" x="39.68" y="52.29" width="1.43" height="19.01" rx="0.2" transform="translate(-21.64 101.84) rotate(-89.67)"/><rect class="cls-8" x="39.68" y="52.29" width="1.43" height="19.01" rx="0.2" transform="translate(-21.64 101.84) rotate(-89.67)"/><rect class="cls-3" x="36.25" y="52.58" width="8.38" height="1.03" rx="0.17" transform="translate(0.3 -0.23) rotate(0.33)"/><rect class="cls-8" x="36.25" y="52.58" width="8.38" height="1.03" rx="0.17" transform="translate(0.3 -0.23) rotate(0.33)"/><path class="cls-9" d="M34.71,27.26c-.29,3.48-.39,11.24,3.87,16.22a.27.27,0,0,1-.38.39,18.15,18.15,0,0,1-6.44-12A28.6,28.6,0,0,1,31.63,27a1.54,1.54,0,0,1,1.44-1.41h0A1.54,1.54,0,0,1,34.71,27.26Z"/><path class="cls-7" d="M45.4,27.12c.11,3.49-.21,11.24-4.73,16a.28.28,0,0,0,.37.42A18.14,18.14,0,0,0,48.1,31.87,28.36,28.36,0,0,0,48.49,27a1.54,1.54,0,0,0-1.36-1.49h0A1.55,1.55,0,0,0,45.4,27.12Z"/></g></g></g></svg>