<svg xmlns="http://www.w3.org/2000/svg" xmlns:xlink="http://www.w3.org/1999/xlink" viewBox="0 0 1056.02 281.84"><defs><style>.cls-1{isolation:isolate;}.cls-2{fill:#efefef;}.cls-3{fill:#d6d6d6;}.cls-4{fill:#023149;}.cls-5{fill:#cb7f7f;}.cls-6{fill:#fe6002;}.cls-7{fill:#f60;}.cls-24,.cls-8{fill:#fff;}.cls-9{fill:#bfbfbf;}.cls-10,.cls-12{mix-blend-mode:multiply;}.cls-10{fill:url(#radial-gradient);}.cls-11,.cls-13{fill:#ff7400;}.cls-12{fill:url(#Áåçûìÿííûé_ãðàäèåíò_28);}.cls-13{font-size:22.8px;}.cls-13,.cls-24{font-family:Intro-Bold, Intro Bold;font-weight:700;}.cls-14{letter-spacing:0em;}.cls-15{letter-spacing:-0.01em;}.cls-16{letter-spacing:0em;}.cls-17{letter-spacing:0em;}.cls-18{fill:#29262a;}.cls-19{fill:#404040;}.cls-20{fill:#f6a9a9;}.cls-21{fill:#ff7402;}.cls-22{fill:#bd502d;}.cls-23{fill:#22233b;}.cls-24{font-size:19px;}.cls-25{letter-spacing:0em;}.cls-26{letter-spacing:-0.01em;}.cls-27{letter-spacing:-0.01em;}.cls-28{letter-spacing:-0.01em;}.cls-29{letter-spacing:0.01em;}.cls-30{letter-spacing:-0.01em;}.cls-31{letter-spacing:0.01em;}</style><radialGradient id="radial-gradient" cx="-33507.41" cy="-753757.04" r="138.07" gradientTransform="translate(255462.84 -46011.05) rotate(-90) scale(1.38 0.34)" gradientUnits="userSpaceOnUse"><stop offset="0.15" stop-color="#8d8c8d"/><stop offset="0.21" stop-color="#9d9c9d"/><stop offset="0.37" stop-color="#c0bfc0"/><stop offset="0.52" stop-color="#dcdbdc"/><stop offset="0.68" stop-color="#efefef"/><stop offset="0.84" stop-color="#fbfbfb"/><stop offset="1" stop-color="#fff"/></radialGradient><radialGradient id="Áåçûìÿííûé_ãðàäèåíò_28" cx="-1891.01" cy="-1133.51" r="13.7" gradientTransform="translate(4010.33 1851.19) scale(1.83 1.51)" gradientUnits="userSpaceOnUse"><stop offset="0.03" stop-color="#262423"/><stop offset="0.07" stop-color="#3a3837"/><stop offset="0.15" stop-color="#686666"/><stop offset="0.25" stop-color="#908f8f"/><stop offset="0.34" stop-color="#b3b2b2"/><stop offset="0.44" stop-color="#cecece"/><stop offset="0.55" stop-color="#e4e4e4"/><stop offset="0.67" stop-color="#f3f3f3"/><stop offset="0.8" stop-color="#fcfcfc"/><stop offset="1" stop-color="#fff"/></radialGradient></defs><g class="cls-1"><g id="Layer_2" data-name="Layer 2"><g id="Layer_1-2" data-name="Layer 1"><rect class="cls-2" x="135.26" y="257.58" width="826.09" height="16.69" rx="8.34"/><path class="cls-3" d="M152.66,242.08s-17.76-14.24-43-4.62-55.51-14.87-94.06-3.34-7.75,50.4,117.84,47.57S152.66,242.08,152.66,242.08Z"/><path class="cls-3" d="M903.36,244.15s17.76-13.5,43-4.39,55.51-14.09,94.07-3.16,7.74,47.78-117.85,45.1S903.36,244.15,903.36,244.15Z"/><path class="cls-4" d="M30.89,242.1,22.52,249s1.24,3.61,4.61,3.94l7.06-6.45S30.91,241.81,30.89,242.1Z"/><path class="cls-4" d="M29.55,247.77s-2.13,2.23-1.21,3.84,2.49,2.12,5,2.91c3.19,1,5.85,7.53.15,4.34-.84-.47-5.45-3.18-6.83-6.15-.67-1.44.51-3.55,1.12-4Z"/><path class="cls-5" d="M163.6,88.33s1-.27,1.16-.69.78-2.13.78-2.13l.44-.57s.12-1.46.16-1.73.15-.65.55-.29a2.57,2.57,0,0,1,.62,1.82,2.06,2.06,0,0,0,.15,1.1,15.5,15.5,0,0,1,1.93-.37s2.12-1.14,3-1.53,1.42-.59,1.58-.36-.22.75-1.13,1.31l-2.15,1.33a.07.07,0,0,0,.05.13l3.24-.57c.61-.1,1.57-.24,1.65.14s-1.78,1-2.62,1.3c-.55.19-1.2.38-1.58.48-.05,0,0,.1,0,.1.75,0,2.54,0,3.05.13s.9.28.89.46-.7.5-1.38.6-2.16.22-2.82.27a.05.05,0,0,0,0,.1c.49.14,1.51.42,2,.53.61.14,1,.33,1,.63s-1.5.23-2,.19-1.72-.23-1.72-.23a19,19,0,0,1-2.85.88,5.11,5.11,0,0,1-2.76-.36c-.41.17-1.3.68-1.3.68l-1.15-3Z"/><path class="cls-6" d="M165.55,93.89a2.09,2.09,0,0,0,.43-2.56l-1.68-3.06a2.05,2.05,0,0,0-2.87-.79,102.35,102.35,0,0,1-11.76,6.1,87.51,87.51,0,0,1-14.71,5c-11.07-2.63-21-5.17-21-5.17-5.49-1.79-9.68,12.68-9.68,12.68l.08,0c9,3,18.62,4.71,25.76,4.51h0c5.59.36,13.74-2,19.61-5.71l3.9-2.46.06,0A100.81,100.81,0,0,0,165.55,93.89Z"/><path class="cls-5" d="M884.05,118l3.18.63,0,0-2.79-.6a2,2,0,0,1-.52-.22l-.2-.12a.28.28,0,0,1,0-.5,2.05,2.05,0,0,1,1-.12l3,.42a7.3,7.3,0,0,1,2.33.39l-1-.66c-.19-.14-.56-.52-.43-.85l.1-.21c.35.13,1.6.79,2.06,1a17.43,17.43,0,0,1,2.26,2.46l1.63,0L894.6,122l-1.48-.18-1.45.22-3.17-.12h0l-2.57-.39a3.59,3.59,0,0,1-.59-.18l-.25-.11c-.25-.1-.37-.36-.21-.43a1.71,1.71,0,0,1,.9-.11l1.14.13-2.44-.66a3.67,3.67,0,0,1-.64-.25l-.27-.14c-.27-.14-.4-.42-.22-.48a1.9,1.9,0,0,1,1,0l2,.43-2.21-.57a3.47,3.47,0,0,1-.76-.31l-.33-.17c-.31-.16-.44-.51-.23-.59A2.24,2.24,0,0,1,884.05,118Z"/><path class="cls-5" d="M894.06,122l-.62-2.31a75.94,75.94,0,0,1,14.29-4h.07l4.58-.86c6.88-1.29,15-.34,15.88,2.56l.29,1c.89,2.91-6.3,5.19-13.62,5.11l-4.88,0H910A90.12,90.12,0,0,1,894.06,122Z"/><path class="cls-7" d="M959.37,94.76l-.88-1.16c-2.62-3.44-8.17-3.72-12.4-.62l-3.64,2.68-.06,0c-7.35,5.28-14.73,14-18.37,19.07a30.94,30.94,0,0,0-11.64,0l-1.1.21c.17,2.8.39,5.61.7,8.4l2.95,0a31.78,31.78,0,0,0,8.75-1.07,6.8,6.8,0,0,0,1.19,0c3-.3,18.37-5.86,27.91-13l.06,0,3.64-2.68C960.7,103.51,962,98.2,959.37,94.76Z"/><rect class="cls-8" x="152.31" y="2.81" width="780.99" height="260.07"/><path class="cls-9" d="M932.8,3.31V262.39h-780V3.31h780m1-1h-782V263.39h782V2.31Z"/><path class="cls-10" d="M543.44,0c10.28,0,24.44,59,24.44,131.69s-14.16,131.7-24.44,131.7Z"/><polygon class="cls-11" points="544.25 164.22 544.25 99.16 578.17 131.69 544.25 164.22"/><ellipse class="cls-12" cx="543.72" cy="134.39" rx="31.6" ry="24.66"/><polygon class="cls-8" points="513.88 176.23 513.88 87.15 560.32 131.69 513.88 176.23"/><text class="cls-13" transform="translate(292.13 48.53)"><tspan class="cls-14">R</tspan><tspan x="12.36" y="0">equi</tspan><tspan class="cls-15" x="54.52" y="0">r</tspan><tspan x="61.75" y="0">eme</tspan><tspan class="cls-16" x="103.61" y="0">n</tspan><tspan x="116.17" y="0">t 1</tspan></text><text class="cls-13" transform="translate(690.35 48.53)"><tspan class="cls-14">R</tspan><tspan x="12.36" y="0">equi</tspan><tspan class="cls-15" x="54.52" y="0">r</tspan><tspan x="61.75" y="0">eme</tspan><tspan class="cls-17" x="103.61" y="0">n</tspan><tspan x="116.17" y="0">t 2</tspan></text><path class="cls-4" d="M147.64,250.15,146.22,261s3.33,1.73,6-.4L153,251A51.82,51.82,0,0,0,147.64,250.15Z"/><path class="cls-4" d="M151.2,255.44s-.6,3.05,1,3.9,3.22.39,5.71-.32c3.23-.92,8.92,3.08,2.44,3.56-.95.08-6.27.36-9-1.37-1.33-.84-1.47-3.27-1.2-4Z"/><path class="cls-18" d="M111.49,149.51c-8.81-3.16-17-3.14-20.82,4.91l-1.09,2.29c-5.59,11.7,36.48,37.75,44.4,42,10.09,5.4,26.45,11.12,27.4,3.78a26.31,26.31,0,0,0-2.78-15.55c-4.26-9.29-12.16-15.73-19.69-21.3C132.65,161,121.64,153.15,111.49,149.51Z"/><path class="cls-18" d="M153.62,254.21c2.31-7.51,6.12-23.87,6.77-37.11,0,0,0-.06,0-.1l1.21-16.58c-.34-7.75-4-10-8.14-10.21,0,0-10.66,11.57-10.67,11.6-.85,13.3,2.31,43.77,3.75,51.41C146.55,253.22,151.46,255.31,153.62,254.21Z"/><path class="cls-19" d="M29.47,251.63c8.34-2.75,25.87-9.75,38.76-17.42l.1-.05,6-3.54c7-4.09,11-10.27,9.07-13.79l-.67-1.18c-2-3.52-10.58-7.11-10.61-7.09-26.43,15.3-39,30.69-45.49,36.62C26.66,245.18,27.28,250.53,29.47,251.63Z"/><path class="cls-19" d="M108.87,157.72c.24-9.54-9.67-12.82-18.35-14.09l-2.46-.36C75.44,141.42,72.18,157,70.93,169.13c-.94,9.19-4.72,46.35-2,53.19,1.09,2.71,6.56,5.8,7.79,6s4.5-3.14,6.29-5.42c5.59-7.15,10.83-18.95,14.45-27.7C100.5,187.91,108.59,168.7,108.87,157.72Z"/><path class="cls-20" d="M132,79c1.91,4.43.87,12.2-.78,12.77C127.72,93,120.92,89.26,119,84.83s-.56-9.34,3-11S130.07,74.56,132,79Z"/><path class="cls-20" d="M122.08,98.67l-5.4-3.5,5.21-8.38,6,4.39S123.57,94.55,122.08,98.67Z"/><path class="cls-20" d="M130.88,79.47a21.55,21.55,0,0,0,3.7,2c.93.21,1.35.63.39,1.61a5.11,5.11,0,0,1-2.48,1.23Z"/><path class="cls-21" d="M116.78,91.62c1.13-.14.68-1.25,1.43-.89l5.94,3.69c2,.87.52,1.47.71,1.91,5.1,11.61-4.19,34.75-9.78,55.42a8.8,8.8,0,0,1-.37,1.13,4,4,0,0,1-.57,2.07c-2.33,3.8-11.38,4-20.82.18-8.43-3.4-14.46-8.87-14.74-13.16v0a2.8,2.8,0,0,1,0-.29,7.73,7.73,0,0,1,.84-3.39c3.53-7.41,6.44-14.69,10.3-20.52C105.75,90.23,116.48,91.41,116.78,91.62Z"/><path class="cls-7" d="M115.08,151.75c2.66-9.8,6.14-20.16,8.52-29.58,2.07-7.61.76-10.1-.74-11.12-4.25-2.88-5.59-6.49-10-9.14-9,13.14-7.54,33.71-2.25,44.65a42.91,42.91,0,0,0,4.09,6.74c0-.14,0-.28,0-.42A8.8,8.8,0,0,0,115.08,151.75Z"/><path class="cls-22" d="M120.48,86s1,0,1.12-1.78a2.92,2.92,0,0,1,1.84-2.42,3.09,3.09,0,0,0,2.86-2.62c.22-.85,0-2.19.73-2.84a1.66,1.66,0,0,1,.77-.36c2-.44,4.11.32,6-.67a2.57,2.57,0,0,0,0-4.5c-1.75-.8-4.34,2.19-6,1.61-.82-.3-1.19-1.1-1.81-1.65a4.82,4.82,0,0,0-2.77-1A5.55,5.55,0,0,0,117.88,72c-.71,1.07-1.37,2.27-2.72,2.55-.71.14-1.45.14-2.16.26a5.14,5.14,0,0,0-3.26,1.91c-1.77,2.39-.16,5.51,2,6.93,1.86,1.21,1.44,2.52,1.25,3.63-.36,2,1.83,5.06,5.4,3.26a2.08,2.08,0,0,0,1.87.62l1-2.17A7.57,7.57,0,0,1,120.48,86Z"/><path class="cls-20" d="M123.59,84.26c-.15,1.41.37,2.62,1.14,2.7s1.51-1,1.66-2.4-.37-2.62-1.15-2.7C116.22,80.91,124.21,78.05,123.59,84.26Z"/><path class="cls-5" d="M170.79,109.15s1-.33,1.13-.75.67-2.17.67-2.17l.41-.59s0-1.47.07-1.73.12-.67.53-.33a2.6,2.6,0,0,1,.72,1.79,2,2,0,0,0,.2,1.09,17.37,17.37,0,0,1,1.9-.47s2.07-1.25,3-1.68,1.39-.67,1.56-.44-.18.76-1.06,1.36c-.67.46-1.64,1.13-2.08,1.45a.07.07,0,0,0,.05.12l3.21-.74c.6-.13,1.56-.31,1.65,0s-1.72,1.11-2.55,1.44c-.54.22-1.18.44-1.55.57a0,0,0,0,0,0,.09c.75,0,2.54-.08,3.05,0s.92.23.92.42-.68.53-1.35.67-2.15.33-2.81.41a.05.05,0,0,0,0,.1c.49.12,1.53.35,2,.43.62.11,1,.28,1,.58s-1.48.31-2,.3-1.74-.14-1.74-.14a19.1,19.1,0,0,1-2.8,1,5.09,5.09,0,0,1-2.77-.21,14.29,14.29,0,0,0-1.26.74l-1.3-2.89Z"/><path class="cls-21" d="M171.13,114.31a2.07,2.07,0,0,0,1-2.39l-1-3.37a2.07,2.07,0,0,0-2.63-1.42,100.31,100.31,0,0,1-12.79,3.25,86.55,86.55,0,0,1-15.42,1.49c-10.23-5.09-22.12-15.06-22.12-15.06-11.45-4.15-13.46,12.36-8.51,15.36,0,0,16.27,8.89,23.27,10.33h0c5.38,1.63,13.84,1.19,20.37-1.08l4.34-1.51.06,0A98.65,98.65,0,0,0,171.13,114.31Z"/><path class="cls-20" d="M949.94,82.9l-.5.41-.14-5.73c.17-.41.33-.83.47-1.27,1.53-4.77.55-9.39-2.19-10.31s-6.21,2.21-7.74,7a15.53,15.53,0,0,0-.58,2.5,11.79,11.79,0,0,1-2,2.25c-.78.51-.37.76,1.08,1.21l.55.16,1.24,6a1.49,1.49,0,0,0,1.3,1.47l4.48.54,0,0a17.49,17.49,0,0,1,4.54,6.12l4.58-3.72Z"/><polygon class="cls-5" points="974.37 251.56 974.76 256.11 966.46 259.84 970.43 252.07 974.37 251.56"/><path class="cls-23" d="M961.26,262.73l7.81-.14a2.57,2.57,0,0,0,1.81-.8l3.13-3.26.07,4,1.17,0,1-4.51a3.9,3.9,0,0,0-.52-2.9l-.61-.95a.46.46,0,0,0-.69-.11L970,257.79a5.87,5.87,0,0,1-3,1.34l-.92.13a8.26,8.26,0,0,0-2,.52l-1.18.47a3.23,3.23,0,0,0-.55.39,4.78,4.78,0,0,0-.89,1l-.45.72A.23.23,0,0,0,961.26,262.73Z"/><polygon class="cls-20" points="1020.96 157.07 1022.88 152.95 1031.89 154.03 1024.61 158.67 1020.96 157.07"/><path class="cls-23" d="M1037.81,154.23l-6.8-3.92a2.6,2.6,0,0,0-2-.25l-4.31,1.2,1.92-3.46-1-.59-3.08,3.37a3.79,3.79,0,0,0-1,2.76l.05,1.14a.47.47,0,0,0,.54.45l5.7-1a5.9,5.9,0,0,1,3.24.39l.86.37a8.22,8.22,0,0,0,1.93.57l1.26.2a3.63,3.63,0,0,0,.66-.05,4.39,4.39,0,0,0,1.27-.41l.75-.38A.25.25,0,0,0,1037.81,154.23Z"/><path class="cls-18" d="M958.81,147.54c4.07-7.26,9.69-11.9,17.39-8.42l2.19,1c11.2,5.07,6.91,18.38,2.51,28.09A130.3,130.3,0,0,1,969,189.08c-3.83,5.47-8.56,12.64-13.88,16.35-2.11,1.47-3.89,1.69-5,1.19s-2.18-2-2.63-4.64c-1.39-8.19.94-19.21,2.6-27.44C951.51,167.7,954.13,155.9,958.81,147.54Z"/><path class="cls-18" d="M969.15,254.36c-4.25-7.47-12.53-24-17.23-37.93,0,0,0-.07,0-.11l-2.23-6.47c-2.58-7.5-2-14.5,1.32-15.64l1.11-.38c3.31-1.13,8.09,4,10.67,11.53l2.22,6.48a.42.42,0,0,1,0,.1,245.56,245.56,0,0,1,9.65,39.8S971.28,255,969.15,254.36Z"/><path class="cls-19" d="M967.5,156.71c.07-7.87.41-18.92,7.57-19.73l2-.23c10.42-1.18,14.61,16.32,15.29,26.35a137.77,137.77,0,0,1-.34,22.72c-.62,6.29-1.22,14.4-3.67,20-1,2.2-2.21,3.23-3.23,3.34s-2.45-.61-3.86-2.54c-4.39-6-7.14-16.15-9.26-23.67C970.28,176.66,967.42,165.76,967.5,156.71Z"/><path class="cls-19" d="M1026.2,158.57c-4.16,7.86-14,24.31-23.61,36.27a.86.86,0,0,1-.07.1l-4.44,5.6c-5.14,6.48-11.65,10.05-14.53,8l-1-.7c-2.88-2.08-1.05-9,4.09-15.52l4.43-5.6.08-.09a263.14,263.14,0,0,1,29.58-31.06S1025.59,156.42,1026.2,158.57Z"/><path class="cls-19" d="M992.53,175c-3.94-2.67-7.5-5.21-11.11-9.86-5.46-7-15.5-30.52-.68-33C998.84,129,1003.55,153.84,992.53,175Z"/><path class="cls-21" d="M990.53,127.15a137.23,137.23,0,0,0-21-35.53c-6.25-6.06-11.21-8.14-17.77-5.09h0c-6.56,3-10.17,10.46-7.9,17,0,0,12.34,11.92,13.62,37.91.14,2.85-3.13,7.84,2.65,7.43,0,0,20-.15,33.53-13.54a2.9,2.9,0,0,0,0-4.09A13.78,13.78,0,0,1,990.53,127.15Z"/><path class="cls-7" d="M946.63,95.77h11.76a57,57,0,0,1,.73,6.4,140.93,140.93,0,0,1-.46,22q-.58,6.15-1.63,12.21c-2.48-22.48-13.21-32.85-13.21-32.85a12.41,12.41,0,0,1-.67-4.24Z"/><path d="M945.4,71.21a7.15,7.15,0,0,0-3.73-3,13.92,13.92,0,0,1,4.67-3.13c7.42-3.09,12.11,7.28,18,15.71,5.68,8.08,14.48,9.23,18.79,10.38,11.8,3.14,11.28,14.44,7.67,19.45s-13.42,2.07-18.71-1-3.75-11.5-6.35-15.08c-2.95-4.07-6.09-4.52-11-5.31-7.11-1.15-6-7.26-6.8-11.3a3.87,3.87,0,0,0-1.42-2.33A8.16,8.16,0,0,0,945.4,71.21Z"/><path d="M941.83,64a5,5,0,0,0-3.5,3.06,2.52,2.52,0,0,0,.73,3,3.58,3.58,0,0,0,3.61,1.12,3.05,3.05,0,0,1,3,1.53,9.5,9.5,0,0,0,4.17,3.23c3,1.38,10-1.06,8.67-3.49a22.4,22.4,0,0,0-5-6.15C951.83,65.06,948.32,62.57,941.83,64Z"/><path class="cls-20" d="M946.9,74.36c.52-1,2.27-.62,3,2,.41,1.47-.58,5.43-2.57,3.51,0,0-5-7.15-2.66-6.75C945,73.21,946.25,75.59,946.9,74.36Z"/><rect class="cls-11" x="200.91" y="86.75" width="294.36" height="102.37" rx="7.52"/><text class="cls-24" transform="translate(269.89 131.08)"><tspan class="cls-25">S</tspan><tspan class="cls-26" x="9.31" y="0">t</tspan><tspan x="15.48" y="0">ep </tspan><tspan class="cls-27" x="39.84" y="0">b</tspan><tspan x="50.52" y="0">y s</tspan><tspan class="cls-28" x="71.02" y="0">t</tspan><tspan x="77.2" y="0">ep of h</tspan><tspan class="cls-27" x="132.1" y="0">o</tspan><tspan x="142.4" y="0">w </tspan><tspan x="-10.69" y="22.8">things should be done</tspan></text><rect class="cls-11" x="600.51" y="101.74" width="294.36" height="72.41" rx="6.32"/><text class="cls-24" transform="translate(665.45 143.34)"><tspan class="cls-29">O</tspan><tspan x="13.36" y="0">wner of the p</tspan><tspan class="cls-30" x="118.84" y="0">r</tspan><tspan x="124.87" y="0">oje</tspan><tspan class="cls-31" x="149.43" y="0">c</tspan><tspan x="158.19" y="0">t</tspan></text><path class="cls-20" d="M880.39,104.42l3.56.79,0,0-3.12-.75a2,2,0,0,1-.57-.26l-.23-.14a.32.32,0,0,1,.06-.56,2.46,2.46,0,0,1,1.17-.11l3.41.55a8,8,0,0,1,2.61.51l-1.06-.77c-.2-.16-.61-.6-.45-1a2.4,2.4,0,0,0,.11-.23c.39.15,1.79.93,2.3,1.17a21.1,21.1,0,0,1,2.47,2.83h1.83l-.36,2.72-1.66-.24-1.64.21-3.56-.22h0l-2.87-.5a3.41,3.41,0,0,1-.66-.22l-.28-.13c-.27-.12-.4-.41-.22-.48a2,2,0,0,1,1-.11l1.27.18-2.72-.81a3.86,3.86,0,0,1-.71-.3l-.31-.16c-.29-.16-.43-.48-.23-.55a2.3,2.3,0,0,1,1.11,0l2.27.54-2.46-.7a4.47,4.47,0,0,1-.85-.37l-.36-.2c-.35-.19-.49-.59-.25-.67A2.52,2.52,0,0,1,880.39,104.42Z"/><path class="cls-20" d="M890,108.8l.6-2.52a104.25,104.25,0,0,1,17.57-1.4h.08l5.41,0c8.12,0,16.36,2.53,15.73,5.71l-.21,1.07c-.63,3.2-9.62,4.19-17.48,2.7l-5.22-1-.08,0A89,89,0,0,1,890,108.8Z"/><path class="cls-7" d="M960.34,94.76l-.52-1.18c-1.56-3.53-6.78-4.57-11.67-2.31l-4.21,1.94-.07,0a97.32,97.32,0,0,0-16.33,9.85,11.7,11.7,0,0,1-8.45,2.13,40.44,40.44,0,0,0-5.45-.37h-.74a48.61,48.61,0,0,0-2.79,9.18l1.57.3a39.58,39.58,0,0,0,6.8.68,6.73,6.73,0,0,0,1.35.21c3,.15,19.14-2.79,30.21-8l.07,0,4.22-1.94C959.21,103,961.91,98.29,960.34,94.76Z"/></g></g></g></svg>